<?xml version="1.0" encoding="UTF-8" standalone="no"?>
<!DOCTYPE svg PUBLIC "-//W3C//DTD SVG 1.1//EN"
"http://www.w3.org/Graphics/SVG/1.1/DTD/svg11.dtd">
<svg viewBox="0 0 909 1286" version="1.1" xmlns="http://www.w3.org/2000/svg" xmlns:xlink="http://www.w3.org/1999/xlink">
<defs>
<clipPath id="c0"><path d="M399.6,1240.4v-39.1h37.8v39.1Z"/></clipPath>
<style type="text/css"><![CDATA[
.g0{
fill: #F58220;
}
.g1{
fill: #231F20;
}
.g2{
fill: #020404;
}
.g3{
fill: #FFFFFF;
}
.g4{
fill: none;
stroke: #231F20;
stroke-width: 0.381;
stroke-linecap: butt;
stroke-linejoin: miter;
stroke-miterlimit: 4;
}
.g5{
fill: #FFFFFF;
stroke: #F58220;
stroke-width: 0.763;
stroke-linecap: butt;
stroke-linejoin: miter;
stroke-miterlimit: 4;
}
.g6{
fill: none;
stroke: #231F20;
stroke-width: 0.377;
stroke-linecap: butt;
stroke-linejoin: miter;
}
.g7{
fill: none;
stroke: #231F20;
stroke-width: 1.512;
stroke-linecap: butt;
stroke-linejoin: miter;
}
.g8{
fill: none;
stroke: #231F20;
stroke-width: 0.377;
stroke-linecap: round;
stroke-linejoin: round;
stroke-miterlimit: 4;
stroke-dasharray: 0,1;
}
.g9{
fill: none;
stroke: #231F20;
stroke-width: 0.643;
stroke-linecap: butt;
stroke-linejoin: miter;
stroke-miterlimit: 4;
}
.ga{
fill: #110000;
}
]]></style>
</defs>
<path d="M45.5,953.2h5.1v-5.1H45.5v5.1Z" class="g0"/>
<path fill-rule="evenodd" d="M423.7,1217.1c0,1.1,-.5,2,-1.3,2.7c-.7,.6,-1.5,1,-2.5,1.1c.8,0,1.6,.8,2.2,2.2c.5,1.6,.9,2.5,.9,2.8c-.3,.2,-.7,.3,-1.1,.5c-.4,.1,-.9,.2,-1.3,.3c-.3,-.7,-.6,-1.4,-.8,-2c-.3,-.9,-.4,-1.1,-.6,-1.7c-.3,-.8,-.6,-1.3,-.9,-1.6c-.4,-.4,-.9,-.6,-1.4,-.6v-.4c.1,0,.3,0,.4,0c.9,0,1.6,-.2,2.3,-.7c.8,-.6,1.3,-1.5,1.3,-2.7c0,-1.4,-.6,-2.4,-2,-2.9c-.4,-.2,-1.1,-.3,-2,-.4v-.5h2.5c.9,0,1.8,.2,2.5,.6c1.1,.7,1.8,1.8,1.8,3.3m1.8,7.2l-1.6,3.9H411.5v-.4c.5,0,1,-.2,1.4,-.4c.6,-.3,.9,-.8,.9,-1.4v-10.5c0,-.6,-.3,-1.1,-.9,-1.5c-.5,-.2,-1,-.4,-1.4,-.4v-.4h5v11.9c0,.6,.2,1.1,.7,1.5c.5,.3,1.2,.5,2,.5c1.7,0,3.1,-.3,4.3,-1.2c.7,-.5,1.3,-1.1,1.7,-1.7Z" class="g1"/>
<path fill-rule="evenodd" d="M407.8,1232.4c-.1,-.1,-.2,-.3,-.3,-.4c-.2,-.2,-.4,-.3,-.7,-.4l.5,-.2l1.2,1.2c-.2,-.1,-.2,0,-.5,.2l-1.2,1.2c-.2,.2,-.3,.3,-.2,.5l-.6,-.6c.2,.1,.3,0,.5,-.2Z" class="g1"/>
<path fill-rule="evenodd" d="M406.4,1230.8c-.1,-.2,-.2,-.3,-.3,-.5c-.1,-.2,-.3,-.3,-.6,-.4l.5,-.2l1.1,1.4c-.2,-.1,-.3,-.1,-.6,.1l-1.3,1c-.3,.2,-.3,.3,-.3,.5l-.5,-.6c.2,0,.3,0,.6,-.2Z" class="g1"/>
<path fill-rule="evenodd" d="M404.4,1229.8c.3,-.2,.5,-.4,.6,-.7c.1,-.3,.1,-.6,0,-.8c-.3,-.6,-.9,-.7,-1.5,-.4c-.2,.1,-.5,.3,-.6,.6c-.1,.3,-.1,.5,.1,.8c.2,.6,.8,.7,1.4,.5m-1.1,-2.3c.7,-.4,1.5,-.1,1.9,.7c.4,.7,.2,1.6,-.6,1.9c-.3,.2,-.7,.2,-1.1,.1c-.3,-.1,-.6,-.4,-.8,-.8c-.4,-.7,-.2,-1.6,.6,-1.9Z" class="g1"/>
<path fill-rule="evenodd" d="M403.6,1225.6c.3,0,.3,-.1,.4,-.3l.2,.8c-.1,-.2,-.2,-.2,-.5,-.1l-.6,.2l-.9,1.1q-.2,.2,-.3,.4l-.1,-.4q0,-.1,.1,-.3l.8,-.9l-.9,-.3c-.1,0,-.2,0,-.2,0c-.1,0,-.2,.1,-.2,.2l-.2,-.7l1.7,.6Z" class="g1"/>
<path fill-rule="evenodd" d="M403.3,1224c.1,-.1,0,-.2,0,-.3c0,-.3,-.1,-.6,-.3,-.7c-.2,-.3,-.5,-.4,-.9,-.3c-.3,0,-.5,.2,-.7,.4c-.2,.2,-.2,.5,-.2,.8c0,.2,.1,.2,.1,.4Zm-2.3,.5c0,0,0,-.1,0,-.2c0,-.2,0,-.3,-.1,-.4c0,-.4,0,-.7,.2,-1c.2,-.4,.5,-.6,.9,-.7c.6,0,1.1,.2,1.4,.6c.1,.2,.1,.3,.2,.6c0,.1,0,.4,.1,.5l.1,.6q-.2,-.1,-.2,-.1c-.1,0,-.2,0,-.4,0l-1.6,.3c-.4,0,-.4,.1,-.5,.2Z" class="g1"/>
<path fill-rule="evenodd" d="M401.2,1219.5c-.2,.1,-.3,.4,-.3,.6c0,.3,.2,.6,.4,.6c.2,0,.3,-.1,.5,-.6c.2,-.4,.3,-.5,.4,-.6c.1,-.1,.3,-.2,.5,-.2c.2,0,.4,.1,.5,.3c.2,.2,.3,.5,.3,.8c0,.3,-.1,.5,-.2,.7l-.5,.2c.2,-.3,.4,-.6,.4,-.9c0,-.4,-.2,-.7,-.4,-.7c-.1,0,-.3,.1,-.3,.2c-.1,.1,-.2,.2,-.3,.5c-.2,.3,-.3,.4,-.4,.5c-.1,.2,-.3,.2,-.5,.2c-.4,0,-.7,-.4,-.7,-1c.1,-.2,.1,-.4,.2,-.6Z" class="g1"/>
<path fill-rule="evenodd" d="M403.2,1217.5c.3,.1,.4,.1,.6,0l-.2,.7c-.1,-.1,-.1,-.2,-.5,-.3l-1.6,-.4c-.3,0,-.4,0,-.5,.1l.1,-.6c0,0,0,-.1,0,-.2c0,0,.1,-.1,.1,-.1c0,-.3,.1,-.5,.3,-.6c.1,-.1,.3,-.2,.5,-.1c.3,0,.6,.4,.6,.8c.9,-.4,1.3,-.7,1.5,-.9q0,.2,0,.3c-.1,.3,-.2,.3,-.5,.5c-.4,.2,-.8,.4,-1.2,.5c0,-.4,-.1,-.7,-.4,-.8c-.3,0,-.5,.1,-.6,.4c0,.1,0,.2,0,.3Z" class="g1"/>
<path fill-rule="evenodd" d="M404,1215.3c.1,-.1,.2,-.2,.2,-.4c.1,-.4,.2,-.6,.1,-.8l.4,.3l-.6,1.6c0,-.2,-.1,-.2,-.4,-.3l-1.6,-.6c-.3,-.1,-.4,-.1,-.5,0l.5,-1.3q0,-.1,0,-.2l.5,.2c-.2,.1,-.3,.2,-.4,.4c0,.2,-.1,.3,-.1,.4l.7,.3l.2,-.5q0,-.1,0,-.2l.4,.2c-.1,0,-.1,.1,-.2,.3l-.1,.3Z" class="g1"/>
<path fill-rule="evenodd" d="M404.1,1211c-.3,0,-.5,.2,-.6,.5c-.4,.6,-.2,1.2,.4,1.5c.5,.3,1.2,.1,1.6,-.4c0,-.2,.1,-.4,.2,-.6l-.5,-.2c-.3,-.2,-.4,-.2,-.6,-.1l.4,-.6c0,.1,.1,.1,.2,.2l.7,.4q.1,.1,.2,.1l-.1,.1c-.1,.4,-.2,.6,-.3,.8c-.2,.4,-.5,.6,-.8,.8c-.4,.2,-.8,.2,-1.2,-.1c-.4,-.2,-.7,-.6,-.7,-1.1c0,-.3,.1,-.7,.3,-1c.1,-.2,.2,-.4,.4,-.6Z" class="g1"/>
<path fill-rule="evenodd" d="M406.3,1211.7c0,-.2,0,-.3,-.3,-.5l-1.3,-1c-.3,-.2,-.4,-.2,-.6,-.1l.5,-.7c0,.2,0,.3,.3,.5l1.3,1c.3,.2,.4,.2,.6,.1Z" class="g1"/>
<path fill-rule="evenodd" d="M406.4,1208.1c-.2,0,-.4,.1,-.6,.3c-.2,.2,-.3,.5,-.1,.6c.2,.2,.3,.1,.8,-.1c.4,-.1,.5,-.2,.7,-.2c.2,0,.3,0,.4,.2c.2,.1,.3,.3,.3,.5c0,.3,-.1,.6,-.4,.9c-.2,.2,-.3,.3,-.6,.4l-.4,-.2c.3,-.1,.6,-.2,.8,-.5c.3,-.2,.3,-.6,.1,-.7c0,-.1,-.2,-.1,-.3,-.1c-.1,0,-.2,0,-.5,.2c-.4,.1,-.5,.1,-.7,.2c-.1,0,-.3,-.1,-.4,-.2c-.4,-.3,-.3,-.8,.1,-1.2c.2,-.2,.3,-.3,.5,-.4Z" class="g1"/>
<path fill-rule="evenodd" d="M408.3,1206.4c-.2,0,-.3,0,-.4,.2q-.1,0,-.3,.2l1.2,1.5c.2,.2,.3,.2,.5,.2l-.6,.5c0,-.1,0,-.2,-.2,-.5l-1.2,-1.4c-.1,0,-.2,.1,-.3,.2c-.2,.1,-.2,.2,-.3,.4l-.2,-.4c.1,0,.1,-.1,.2,-.1l1.2,-1c0,-.1,.1,-.1,.1,-.1q0,-.1,0,-.1Z" class="g1"/>
<path fill-rule="evenodd" d="M410.2,1207.4c.2,-.1,.3,-.1,.5,-.2c.3,-.2,.4,-.4,.5,-.7l.2,.6l-1.5,.9c.1,-.1,.1,-.2,-.1,-.5l-.9,-1.4c-.2,-.3,-.3,-.4,-.4,-.4l1.1,-.7c.1,0,.1,-.1,.1,-.1l.3,.4c-.2,0,-.3,0,-.5,.1c-.2,.1,-.3,.2,-.4,.3l.5,.6l.4,-.3q.1,0,.1,-.1l.3,.4q-.2,0,-.4,.1l-.3,.2Z" class="g1"/>
<path fill-rule="evenodd" d="M412,1206.2c.2,.3,.2,.4,.4,.4l-.7,.3c.1,-.1,.1,-.2,-.1,-.5l-.6,-1.5q-.2,-.4,-.4,-.5l.5,-.2q.1,0,.2,-.1q.1,0,.2,0c.2,-.2,.4,-.2,.6,-.1c.2,0,.4,.1,.5,.3c.1,.3,-.1,.7,-.4,.9c.9,.5,1.3,.7,1.7,.7c-.2,.2,-.3,.2,-.3,.2c-.2,.1,-.4,.1,-.8,-.1c-.3,-.2,-.7,-.4,-1,-.7c.3,-.2,.5,-.5,.3,-.8c-.1,-.2,-.3,-.3,-.6,-.2q-.1,.1,-.2,.2Z" class="g1"/>
<path fill-rule="evenodd" d="M415,1204.2c.1,.3,.2,.6,.4,.8c.3,.2,.5,.3,.9,.2c.3,0,.5,-.2,.7,-.5c.1,-.2,.2,-.4,.1,-.7c0,-.3,-.2,-.6,-.4,-.8c-.2,-.2,-.5,-.2,-.8,-.2c-.6,.1,-1,.6,-.9,1.2m3.5,1.5c-.2,.1,-.3,.2,-.5,.2c-.3,.1,-.7,-.1,-1.4,-.5c-.2,.1,-.3,.1,-.4,.1c-.8,.1,-1.5,-.4,-1.6,-1.2c-.1,-.8,.4,-1.5,1.3,-1.6c.8,-.1,1.5,.4,1.7,1.2c0,.3,-.1,.7,-.3,1c-.1,.1,-.1,.2,-.3,.3c.6,.4,1,.5,1.4,.5Z" class="g1"/>
<path fill-rule="evenodd" d="M419.9,1205.1c-.2,.2,-.5,.3,-.8,.3c-.4,-.1,-.7,-.2,-.8,-.5c-.1,-.2,-.1,-.3,-.1,-.6v-1.2c.1,-.4,0,-.5,-.1,-.6l.8,.1c-.2,.1,-.2,.2,-.2,.5l-.1,1.2c0,.3,0,.4,.1,.5c.1,.2,.3,.3,.5,.3c.3,0,.5,-.1,.6,-.3q.1,-.1,.1,-.3l.1,-1.3c0,-.4,0,-.5,-.2,-.6l.8,.1c-.1,0,-.2,.1,-.2,.5l-.1,1.6c0,.4,0,.5,.2,.6l-.6,-.1Z" class="g1"/>
<path fill-rule="evenodd" d="M422.5,1203.4l-.6,1l.8,.2Zm-.8,1.2l-.4,.5c0,.1,-.1,.2,-.1,.2c0,.1,0,.2,.1,.2l-.7,-.1c.2,-.1,.3,-.2,.5,-.5l1.1,-1.6c.1,0,.1,-.1,.1,-.1q0,-.1,-.1,-.2l.7,.2l.3,2.2c0,.4,.1,.5,.2,.7l-.8,-.2q.2,-.1,.2,-.2v-.2l-.1,-.7Z" class="g1"/>
<path fill-rule="evenodd" d="M424.2,1206.1c.2,.1,.4,.2,.5,.3c.3,.1,.5,.1,.8,0l-.4,.4l-1.5,-.6c.1,0,.2,-.1,.3,-.4l.7,-1.6c.1,-.3,.1,-.4,0,-.5l.8,.3c-.2,0,-.3,.1,-.4,.4Z" class="g1"/>
<path fill-rule="evenodd" d="M425.5,1207.1c.2,0,.2,-.1,.4,-.4l.8,-1.4c.2,-.3,.2,-.4,.1,-.6l.7,.4c-.2,0,-.2,.1,-.4,.4l-.8,1.4c-.2,.3,-.2,.4,-.1,.5Z" class="g1"/>
<path fill-rule="evenodd" d="M429.2,1206.8c0,-.1,-.1,-.2,-.2,-.3q-.1,-.1,-.3,-.2l-1.2,1.5c-.1,.2,-.1,.3,-.1,.5l-.6,-.4c.2,0,.2,-.1,.4,-.4l1.1,-1.5c0,0,-.2,-.1,-.2,-.2c-.2,-.1,-.3,-.2,-.6,-.2l.5,-.3q0,.1,.1,.2l1.3,.9c0,0,.1,.1,.1,.1h.1Z" class="g1"/>
<path fill-rule="evenodd" d="M429.3,1209.3q-.2,.2,-.2,.5l-.6,-.6c.2,.1,.3,0,.5,-.2l.4,-.5l.3,-1.3c.1,-.3,.1,-.4,0,-.5l.3,.2l.1,.1q.1,.1,0,.3l-.2,1.1l.9,-.2q.1,0,.2,-.1c0,0,0,-.1,0,-.2l.5,.5l-1.8,.4Z" class="g1"/>
<path fill-rule="evenodd" d="M433.1,1211.1l-1.1,.2l.4,.7Zm-1.4,.3l-.7,.1q-.1,0,-.2,.1c0,0,-.1,.1,0,.2l-.4,-.7c.2,.1,.3,.2,.6,.1l1.9,-.4c.1,0,.2,0,.2,0q.1,-.1,.1,-.2l.3,.5l-1.3,1.9c-.2,.3,-.3,.4,-.3,.6l-.4,-.7q.1,.1,.2,.1q0,-.1,.1,-.2l.4,-.6Z" class="g1"/>
<path fill-rule="evenodd" d="M434.6,1214.5c.1,-.3,.1,-.5,0,-.7c-.1,-.3,-.3,-.5,-.5,-.4c-.2,.1,-.3,.2,-.3,.8c0,.3,0,.5,-.1,.7c0,.1,-.1,.3,-.3,.3c-.2,.1,-.4,.1,-.6,0c-.3,-.1,-.5,-.3,-.6,-.7c-.1,-.2,-.2,-.4,-.2,-.7l.4,-.3c-.1,.3,0,.7,.1,1c.1,.3,.4,.5,.6,.4c.1,-.1,.2,-.2,.2,-.3c.1,-.1,.1,-.2,.1,-.6c0,-.3,0,-.5,.1,-.6c0,-.2,.2,-.3,.3,-.4c.4,-.2,.9,.1,1.1,.7c.1,.2,.1,.3,.2,.6Z" class="g1"/>
<path fill-rule="evenodd" d="M435.3,1216.9c.2,-.3,.2,-.5,.1,-.7c0,-.3,-.3,-.5,-.5,-.5c-.2,.1,-.2,.2,-.3,.8c-.1,.3,-.1,.5,-.2,.6c-.1,.2,-.2,.3,-.4,.4c-.2,0,-.4,0,-.6,-.1c-.2,-.2,-.4,-.4,-.5,-.8c-.1,-.2,-.1,-.5,0,-.7l.4,-.3c-.1,.3,-.2,.7,-.1,1c.1,.3,.4,.5,.6,.5c.1,-.1,.2,-.1,.2,-.2c.1,-.2,.1,-.3,.2,-.6c0,-.4,.1,-.5,.1,-.7c.1,-.1,.3,-.2,.5,-.3c.4,-.1,.8,.2,.9,.8c.1,.2,.1,.4,.1,.6Z" class="g1"/>
<path fill-rule="evenodd" d="M433.8,1219.7c-.2,-.2,-.4,-.4,-.4,-.8c-.1,-.3,.1,-.7,.3,-.9c.2,-.1,.3,-.1,.6,-.1l1.2,-.2c.3,0,.4,-.1,.5,-.2l.1,.8c-.1,-.2,-.2,-.2,-.6,-.2l-1.1,.2c-.3,0,-.4,0,-.5,.2c-.2,.1,-.2,.3,-.2,.5c0,.3,.2,.5,.3,.6c.1,0,.2,0,.4,0l1.3,-.1c.3,-.1,.4,-.1,.5,-.3l.1,.8c-.1,-.1,-.2,-.2,-.6,-.1l-1.6,.2c-.3,0,-.4,0,-.5,.2l-.1,-.6Z" class="g1"/>
<path fill-rule="evenodd" d="M434.1,1221c-.4,0,-.5,.1,-.5,.2v-.8c.1,.2,.2,.2,.5,.2l1.6,.1c.4,0,.5,0,.6,-.2v.6q0,.1,0,.2q0,.1,0,.2c-.1,.2,-.1,.4,-.2,.6c-.2,.1,-.4,.2,-.6,.2c-.3,0,-.6,-.3,-.6,-.7c-.9,.6,-1.2,.9,-1.4,1.3q0,-.3,0,-.4c0,-.3,.1,-.4,.4,-.6c.3,-.3,.7,-.5,1.1,-.7c0,.4,.2,.7,.5,.7c.3,0,.5,-.2,.5,-.5c0,-.1,0,-.2,0,-.3Z" class="g1"/>
<path fill-rule="evenodd" d="M435.6,1224.5l-1,-.6l-.2,.8Zm-1.3,-.8l-.5,-.3c-.1,-.1,-.2,-.1,-.2,-.1q-.1,0,-.2,.1l.1,-.7c.1,.2,.2,.2,.5,.4l1.6,1.1q.1,.1,.2,.1q.1,0,.2,-.1l-.2,.6l-2.2,.5c-.4,0,-.5,.1,-.7,.2l.2,-.8c.1,.1,.1,.2,.1,.2q.1,0,.3,0l.6,-.2Z" class="g1"/>
<path fill-rule="evenodd" d="M433.2,1226.3c-.3,-.1,-.4,-.1,-.6,0l.3,-.7c0,.2,.1,.3,.4,.4l1.6,.7c.2,.1,.3,.1,.5,0l-.2,.5q-.1,0,-.2,0l-2.4,.7l1.5,.6c.3,.1,.4,.1,.5,0l-.2,.7c-.1,-.2,-.1,-.3,-.4,-.4l-2.2,-.9c.2,-.2,.4,-.3,.6,-.3l2.3,-.7Z" class="g1"/>
<path fill-rule="evenodd" d="M432.5,1231.3c.3,-.2,.5,-.3,.6,-.6c.3,-.4,.2,-1,-.3,-1.3c-.6,-.4,-1.2,-.2,-1.5,.3c-.2,.2,-.3,.5,-.3,.9l-.3,-.5c0,-.2,.1,-.4,.2,-.6c.3,-.4,.7,-.7,1.1,-.8c.3,0,.7,.1,1,.2c.7,.5,.8,1.3,.4,2c-.1,.2,-.3,.4,-.5,.6Z" class="g1"/>
<path fill-rule="evenodd" d="M430.3,1231.1c-.1,.1,-.2,.2,-.4,.4c-.2,.2,-.3,.5,-.3,.7l-.3,-.5l1.1,-1.3c0,.2,0,.3,.3,.5l1.3,1.1c.2,.2,.3,.2,.5,.2l-.9,1c0,.1,-.1,.1,-.1,.1l-.3,-.3c.1,0,.2,0,.4,-.2c.1,-.2,.2,-.3,.3,-.4l-.6,-.5l-.4,.4q0,.1,-.1,.2l-.3,-.3c.1,0,.2,-.1,.3,-.2l.2,-.3Z" class="g1"/>
<path fill-rule="evenodd" d="M409.7,1236.8c.2,0,.3,0,.5,-.3l.8,-1.5c.1,-.3,.1,-.4,.1,-.5l.6,.3c-.1,0,-.2,.1,-.4,.4l-.8,1.5c-.2,.3,-.2,.4,-.1,.5Z" class="g1"/>
<path fill-rule="evenodd" d="M413.3,1236.1c-.1,-.2,-.2,-.4,-.5,-.5c-.3,-.1,-.5,-.1,-.6,.1c-.1,.2,0,.4,.3,.8c.3,.2,.4,.4,.5,.5c0,.2,.1,.3,0,.5c-.1,.2,-.3,.3,-.5,.4c-.2,.1,-.5,.1,-.9,0c-.2,-.1,-.4,-.3,-.6,-.4l.1,-.6c.2,.3,.4,.6,.7,.7c.3,.1,.6,.1,.7,-.2c.1,-.1,.1,-.2,0,-.3c0,-.1,-.1,-.2,-.4,-.4c-.2,-.3,-.3,-.4,-.3,-.6c-.1,-.1,-.1,-.3,-.1,-.5c.2,-.4,.7,-.5,1.3,-.3c.2,.1,.3,.2,.5,.4Z" class="g1"/>
<path fill-rule="evenodd" d="M414.1,1237.2c-.2,.6,-.1,1.2,.3,1.2c.4,.1,.8,-.2,.9,-.8c.2,-.7,0,-1.2,-.4,-1.3c-.4,-.1,-.7,.3,-.8,.9m1.6,.5c-.2,.7,-.7,1.2,-1.4,1.1c-.2,-.1,-.4,-.3,-.6,-.5c-.1,-.3,-.2,-.7,-.1,-1.2c.2,-.8,.8,-1.2,1.4,-1.1c.7,.2,.9,.8,.7,1.7Z" class="g1"/>
<path fill-rule="evenodd" d="M416.4,1238.9c.3,0,.6,-.1,.8,-.3c.3,-.3,.6,-.6,.6,-1c0,-.5,-.2,-.9,-.6,-.9c-.4,-.1,-.7,.2,-.7,.5c0,.4,.2,.7,.6,.7c.1,.1,.3,0,.4,0l-.3,.3c-.1,0,-.2,0,-.3,0c-.5,0,-.9,-.4,-.8,-.9c0,-.6,.5,-1,1.1,-.9c.6,0,1.1,.5,1,1.2c0,.5,-.4,1,-.9,1.3c-.4,.1,-.6,.2,-1.1,.2Z" class="g1"/>
<path fill-rule="evenodd" d="M418.9,1237.8c.1,.7,.4,1.1,.8,1.1c.3,0,.6,-.5,.5,-1.1c0,-.7,-.3,-1.1,-.7,-1.1c-.4,.1,-.6,.5,-.6,1.1m1.8,-.1c0,.8,-.4,1.5,-1,1.5c-.3,0,-.6,0,-.7,-.2c-.3,-.3,-.5,-.7,-.5,-1.1c-.1,-.8,.4,-1.5,1,-1.5c.6,0,1.1,.5,1.2,1.3Z" class="g1"/>
<path fill-rule="evenodd" d="M421.4,1237.5c.2,.7,.6,1.1,.9,1c.4,-.1,.6,-.6,.4,-1.2c-.1,-.6,-.5,-1,-.9,-.9c-.4,.1,-.5,.5,-.4,1.1m1.7,-.3c.2,.8,-.1,1.5,-.7,1.6c-.2,.1,-.5,0,-.7,-.1c-.3,-.2,-.6,-.6,-.7,-1c-.2,-.8,.2,-1.5,.8,-1.6c.6,-.2,1.2,.3,1.3,1.1Z" class="g1"/>
<path fill-rule="evenodd" d="M423.4,1236.2c.3,-.2,.5,-.6,.6,-1l.8,2.2c.1,.2,.1,.3,.2,.3q.1,.1,.2,.1l-.8,.3c.2,-.1,.2,-.2,0,-.5l-.5,-1.6Z" class="g1"/>
<path clip-path="url(#c0)" fill-rule="evenodd" d="M418.5,1240.4c10.4,0,18.9,-8.8,18.9,-19.5c0,-10.8,-8.5,-19.6,-18.9,-19.6c-10.5,0,-18.9,8.8,-18.9,19.6c0,10.7,8.4,19.5,18.9,19.5m-18.6,-19.5c0,-10.6,8.3,-19.2,18.6,-19.2c10.2,0,18.5,8.6,18.5,19.2c0,10.5,-8.3,19.1,-18.5,19.1c-10.3,0,-18.6,-8.6,-18.6,-19.1Z" class="g2"/>
<path fill-rule="evenodd" d="M401,1221.8v.1c-.1,.1,-.2,.2,-.3,.2c-.1,-.1,-.2,-.2,-.2,-.3c0,-.2,.2,-.3,.3,-.2c.2,0,.4,.1,.5,.3c.1,0,.1,.1,.1,.1c0,0,0,.1,0,.2c-.2,-.2,-.3,-.4,-.4,-.4Z" class="g1"/>
<path fill-rule="evenodd" d="M409.3,1234.8c0,.2,-.2,.4,-.4,.4c-.2,0,-.4,-.2,-.4,-.4c0,-.2,.2,-.3,.4,-.3c.2,0,.4,.1,.4,.3Z" class="g1"/>
<path fill-rule="evenodd" d="M423.5,1232.1c-1.5,1,-3.2,1.5,-5,1.5c-5.9,0,-10.7,-5.7,-10.7,-12.7c0,-7.1,4.8,-12.8,10.7,-12.8c5.8,0,10.6,5.7,10.6,12.8c0,3.8,-1.4,7.2,-3.6,9.5c.4,.6,.8,1.2,1.3,1.7c.1,0,.2,.1,.3,.2c3.2,-2.7,5.3,-6.8,5.3,-11.4c0,-8,-6.2,-14.5,-13.9,-14.5c-7.7,0,-13.9,6.5,-13.9,14.5c0,8,6.2,14.5,13.9,14.5c2.4,0,4.7,-.7,6.7,-1.9c-.6,-.4,-1.2,-.8,-1.7,-1.4Z" class="g1"/>
<path fill-rule="evenodd" d="M430.5,1234.2l-.1,.3c-1.7,0,-3.2,-.4,-4.6,-1.2c-1.1,-.6,-2,-1.4,-2.9,-2.5c-.5,-.7,-1,-1.4,-1.4,-2.2h2.6c.6,1.5,1.4,2.8,2.4,3.8c1.2,1.2,2.6,1.8,4,1.8Z" class="g1"/>
<path d="M45.5,1240.7h90.9v-90.9H45.5v90.9Z" class="g0"/>
<path d="M76.5,1229.3c0,.8,.5,1.6,1.5,1.6c1,0,2.1,-.4,3.1,-1.3v-3c-3.1,.4,-4.6,1.2,-4.6,2.7m4.7,2.6c-1.3,.9,-2.7,1.3,-4.2,1.3c-2.4,0,-3.8,-1.6,-3.8,-3.7c0,-2.8,2.6,-4.3,8,-4.9v-.7c0,-.9,-.7,-1.5,-2,-1.5c-1.3,0,-2.3,.5,-3.1,1.5l-2.2,-1.3c1.1,-1.7,2.9,-2.5,5.3,-2.5c3.3,0,5.2,1.5,5.2,3.8c0,0,0,9.1,0,9.2h-3Z" class="g3"/>
<path d="M87,1220.7l2.8,-.4l.3,1.6c1.5,-1.2,2.8,-1.8,4.3,-1.8c2.6,0,4,1.4,4,4.1v8.8H95.1v-8.2c0,-1.5,-.4,-2.2,-1.7,-2.2c-.9,0,-1.9,.4,-3.1,1.4v9H87Z" class="g3"/>
<path d="M122.9,1225c0,-1.6,-.9,-2.6,-2.5,-2.6c-1.5,0,-2.4,.9,-2.6,2.6Zm-2.5,8.3c-3.7,0,-5.9,-2.4,-5.9,-6.6c0,-4.2,2.2,-6.6,5.9,-6.6c3.6,0,5.8,2.3,5.8,6.4c0,.3,0,.5,0,.7h-8.4c0,2.4,1,3.6,2.9,3.6c1.3,0,2.1,-.5,2.9,-1.6l2.5,1.3c-1.1,1.8,-3.1,2.8,-5.7,2.8Z" class="g3"/>
<path d="M56.7,1222.9c-2.5,0,-3,2.2,-3,3.8c0,1.7,.5,3.9,3,3.9c2.5,0,2.9,-2.2,2.9,-3.9c0,-1.6,-.4,-3.8,-2.9,-3.8m0,10.5c-3.3,0,-6.3,-2.1,-6.3,-6.7c0,-4.5,3,-6.6,6.3,-6.6c3.3,0,6.2,2.1,6.2,6.6c0,4.6,-2.9,6.7,-6.2,6.7Z" class="g3"/>
<path d="M65.2,1220.4h3.2v1.5c.6,-.8,2.1,-1.8,3.5,-1.8c.1,0,.3,0,.4,.1v3.1h-.2c-1.4,0,-3,.2,-3.5,1.3v8.4H65.2Z" class="g3"/>
<path d="M112.5,1220.3v12c0,2.1,-.2,5.6,-6.2,5.7c-2.5,0,-4.8,-1,-5.3,-3.2l3.3,-.5c.2,.6,.5,1.2,2.4,1.2c1.7,0,2.6,-.8,2.6,-2.8v-1.5h-.1c-.5,.9,-1.3,1.8,-3.3,1.8c-2.9,0,-5.2,-2,-5.2,-6.3c0,-4.2,2.4,-6.6,5.1,-6.6c2.5,0,3.4,1.2,3.6,1.8l.3,-1.6Zm-6,10c2.6,0,2.8,-2.6,2.8,-4.2c0,-2,-1,-3.6,-2.8,-3.6c-1.2,0,-2.5,.8,-2.5,3.7c0,1.6,.1,4.1,2.5,4.1Z" class="g3"/>
<path d="M133,1219.8h-.7v-3.5l-1.4,3.5h-.4l-1.4,-3.5v3.5h-.7v-4.2h1l1.3,3.2l1.2,-3.2H133Zm-5.5,-3.7h-1.3v3.7h-.7v-3.7h-1.3v-.5h3.3Z" class="g3"/>
<path d="M879.5,1215.4h17.1v-43.9H879.5v43.9Zm0,-56.1h17.1v-43.8H879.5v43.8Z" class="g4"/>
<path d="M45.9,817.3H290.7V776.4H45.9v40.9Z" class="g5"/>
<path d="M45.9,894.4H290.7V853.5H45.9v40.9Z" class="g5"/>
<path d="M306.5,817.3H551.4V776.4H306.5v40.9Z" class="g5"/>
<path d="M47,82.3H517.6m0,0H702M517.6,116.4V82.5M702,82.3H862.3M47,116.6H517.6m0,0H702m0,0H862.3" class="g6"/>
<path d="M45.5,48H517.6M46.2,82.3V48.8M517.6,48H702m0,0H863.8m-.7,34.3V48.8M46.2,116.6V82.3m816.9,34.3V82.3M46.2,150.2V116.6m816.9,33.6V116.6M45.5,150.9H517.6m0,0H702m0,0H863.8" class="g7"/>
<path d="M146.5,70H511" class="g8"/>
<path d="M526.5,69.5h7.8V61.6h-7.8v7.9Z" class="g3"/>
<path d="M526.5,69.5h7.8V61.6h-7.8v7.9Z" class="g9"/>
<path d="M710.9,68.8h7.8V61h-7.8v7.8Z" class="g3"/>
<path d="M710.9,68.8h7.8V61h-7.8v7.8Z" class="g9"/>
<path d="M231.2,104H511" class="g8"/>
<path d="M636.7,103.8H855.2" class="g8"/>
<path d="M526.5,138h7.8v-7.8h-7.8V138Z" class="g3"/>
<path d="M526.5,138h7.8v-7.8h-7.8V138Z" class="g9"/>
<path d="M710.9,132.5h7.8v-7.8h-7.8v7.8Z" class="g3"/>
<path d="M710.9,132.5h7.8v-7.8h-7.8v7.8Z" class="g9"/>
<path d="M47,217.5H517.6m0,0H702M517.6,251.6V217.7M702,217.5H862.3M47,251.8H517.6m0,0H702m0,0H862.3" class="g6"/>
<path d="M45.5,183.2H517.6M46.2,217.5V183.9m471.4,-.7H702m0,0H863.8m-.7,34.3V183.9M46.2,251.8V217.5m816.9,34.3V217.5M46.2,285.3V251.8m816.9,33.5V251.8M45.5,286.1H517.6m0,0H702m0,0H863.8" class="g7"/>
<path d="M146.5,205.1H511" class="g8"/>
<path d="M526.5,204.6h7.8v-7.8h-7.8v7.8Z" class="g3"/>
<path d="M526.5,204.6h7.8v-7.8h-7.8v7.8Z" class="g9"/>
<path d="M710.9,204h7.8v-7.8h-7.8V204Z" class="g3"/>
<path d="M710.9,204h7.8v-7.8h-7.8V204Z" class="g9"/>
<path d="M231.2,239.1H511" class="g8"/>
<path d="M636.7,238.9H855.4" class="g8"/>
<path d="M526.5,273.2h7.8v-7.8h-7.8v7.8Z" class="g3"/>
<path d="M526.5,273.2h7.8v-7.8h-7.8v7.8Z" class="g9"/>
<path d="M710.9,267.7h7.8v-7.8h-7.8v7.8Z" class="g3"/>
<path d="M710.9,267.7h7.8v-7.8h-7.8v7.8Z" class="g9"/>
<path d="M47,351.2H517.6m0,0H702M517.6,385.3V351.4M702,351.2H862.3M47,385.5H517.6m0,0H702m0,0H862.3" class="g6"/>
<path d="M45.5,316.9H517.6M46.2,351.2V317.7m471.4,-.8H702m0,0H863.8m-.7,34.3V317.7M46.2,385.5V351.2m816.9,34.3V351.2M46.2,419V385.5M863.1,419V385.5M45.5,419.8H517.6m0,0H702m0,0H863.8" class="g7"/>
<path d="M146.5,338.8H511" class="g8"/>
<path d="M526.5,338.3h7.8v-7.8h-7.8v7.8Z" class="g3"/>
<path d="M526.5,338.3h7.8v-7.8h-7.8v7.8Z" class="g9"/>
<path d="M710.9,337.7h7.8v-7.8h-7.8v7.8Z" class="g3"/>
<path d="M710.9,337.7h7.8v-7.8h-7.8v7.8Z" class="g9"/>
<path d="M231.2,372.9H511" class="g8"/>
<path d="M636.7,372.6H855.2" class="g8"/>
<path d="M526.5,406.9h7.8v-7.8h-7.8v7.8Z" class="g3"/>
<path d="M526.5,406.9h7.8v-7.8h-7.8v7.8Z" class="g9"/>
<path d="M710.9,401.4h7.8v-7.8h-7.8v7.8Z" class="g3"/>
<path d="M710.9,401.4h7.8v-7.8h-7.8v7.8Z" class="g9"/>
<path d="M537.5,71H527.3c-1.4,0,-2.6,-1.1,-2.6,-2.5V58.3c0,-1.4,1.2,-2.6,2.6,-2.6h10.2c1.4,0,2.5,1.2,2.5,2.6V68.5c0,1.4,-1.1,2.5,-2.5,2.5ZM527.3,57c-.7,0,-1.3,.6,-1.3,1.3V68.5c0,.7,.6,1.2,1.3,1.2h10.2c.7,0,1.3,-.5,1.3,-1.2V58.3c0,-.7,-.6,-1.3,-1.3,-1.3Zm4.1,9.3c-.1,0,-.3,-.1,-.4,-.2l-2.4,-2.4c-.3,-.3,-.3,-.7,0,-1c.2,-.3,.7,-.3,.9,0l1.9,1.9l4.4,-4.3c.3,-.3,.7,-.3,1,0c.2,.3,.2,.7,0,.9l-4.9,4.9c-.1,.1,-.3,.2,-.5,.2Z" class="ga"/>
<path d="M538,139.7H527.8c-1.4,0,-2.5,-1.2,-2.5,-2.6V126.9c0,-1.4,1.1,-2.5,2.5,-2.5H538c1.4,0,2.6,1.1,2.6,2.5v10.2c0,1.4,-1.2,2.6,-2.6,2.6Zm-10.2,-14c-.7,0,-1.2,.5,-1.2,1.2v10.2c0,.7,.5,1.3,1.2,1.3H538c.7,0,1.3,-.6,1.3,-1.3V126.9c0,-.7,-.6,-1.2,-1.3,-1.2Zm4.2,9.2c-.2,0,-.4,0,-.5,-.2l-2.4,-2.4c-.3,-.3,-.3,-.7,0,-1c.3,-.2,.7,-.2,1,0l1.9,2l4.4,-4.4c.2,-.2,.6,-.2,.9,.1c.3,.2,.3,.6,0,.9l-4.8,4.9c-.2,.1,-.3,.2,-.5,.2Z" class="ga"/>
<path d="M722.5,268.9H712.4c-1.5,0,-2.6,-1.1,-2.6,-2.5V256.2c0,-1.4,1.1,-2.6,2.6,-2.6h10.1c1.4,0,2.6,1.2,2.6,2.6v10.2c0,1.4,-1.2,2.5,-2.6,2.5Zm-10.1,-14c-.8,0,-1.3,.6,-1.3,1.3v10.2c0,.7,.5,1.2,1.3,1.2h10.1c.7,0,1.3,-.5,1.3,-1.2V256.2c0,-.7,-.6,-1.3,-1.3,-1.3Zm4.1,9.3c-.2,0,-.4,-.1,-.5,-.2l-2.4,-2.5c-.2,-.2,-.2,-.7,0,-.9c.3,-.3,.7,-.3,1,0l1.9,1.9l4.4,-4.3c.2,-.3,.7,-.3,.9,0c.3,.3,.3,.7,0,.9L717,264c-.1,.1,-.3,.2,-.5,.2Z" class="ga"/>
<path d="M722.5,338.7H712.3c-1.4,0,-2.5,-1.2,-2.5,-2.6V325.9c0,-1.4,1.1,-2.5,2.5,-2.5h10.2c1.4,0,2.6,1.1,2.6,2.5v10.2c0,1.4,-1.2,2.6,-2.6,2.6Zm-10.2,-14c-.7,0,-1.3,.5,-1.3,1.2v10.2c0,.7,.6,1.3,1.3,1.3h10.2c.7,0,1.3,-.6,1.3,-1.3V325.9c0,-.7,-.6,-1.2,-1.3,-1.2Zm4.2,9.2c-.2,0,-.4,0,-.5,-.2l-2.4,-2.4c-.3,-.3,-.3,-.7,0,-1c.3,-.2,.7,-.2,1,0l1.9,2l4.3,-4.4c.3,-.2,.7,-.2,1,.1c.2,.2,.3,.6,0,.9l-4.8,4.9c-.2,.1,-.3,.2,-.5,.2Z" class="ga"/>
<path d="M538.4,408.1H528.2c-1.4,0,-2.5,-1.1,-2.5,-2.5V395.4c0,-1.4,1.1,-2.5,2.5,-2.5h10.2c1.4,0,2.6,1.1,2.6,2.5v10.2c0,1.4,-1.2,2.5,-2.6,2.5Zm-10.2,-14c-.7,0,-1.2,.6,-1.2,1.3v10.2c0,.7,.5,1.3,1.2,1.3h10.2c.7,0,1.3,-.6,1.3,-1.3V395.4c0,-.7,-.6,-1.3,-1.3,-1.3Zm4.2,9.3c-.2,0,-.4,-.1,-.5,-.2l-2.4,-2.4c-.3,-.3,-.3,-.7,0,-1c.3,-.3,.7,-.3,1,0l1.9,2l4.4,-4.4c.2,-.2,.6,-.2,.9,0c.3,.3,.3,.7,0,1l-4.8,4.8c-.2,.2,-.3,.2,-.5,.2Z" class="ga"/>
</svg>