<?xml version="1.0" encoding="UTF-8" standalone="no"?>
<!DOCTYPE svg PUBLIC "-//W3C//DTD SVG 1.1//EN"
"http://www.w3.org/Graphics/SVG/1.1/DTD/svg11.dtd">
<svg viewBox="0 0 909 1286" version="1.1" xmlns="http://www.w3.org/2000/svg" xmlns:xlink="http://www.w3.org/1999/xlink">
<defs>
<clipPath id="c0_1"><path d="M0,1286.2V0H909.4V1286.2Z"/></clipPath>
<clipPath id="c1_1"><path d="M554.9,1212.2v-33.9h89.2v33.9Z"/></clipPath>
<style type="text/css"><![CDATA[
.g0_1{
fill: #F5F3EE;
}
.g1_1{
fill: none;
stroke: #FFFFFF;
stroke-width: 3.055;
stroke-linecap: butt;
stroke-linejoin: miter;
stroke-miterlimit: 4;
}
.g2_1{
fill: none;
stroke: #231F20;
stroke-width: 0.763;
stroke-linecap: butt;
stroke-linejoin: miter;
}
.g3_1{
fill: #FFFFFF;
stroke: #9E925E;
stroke-width: 1.145;
stroke-linecap: butt;
stroke-linejoin: miter;
stroke-miterlimit: 4;
}
.g4_1{
fill: none;
stroke: #9E925E;
stroke-width: 1.145;
stroke-linecap: butt;
stroke-linejoin: miter;
stroke-miterlimit: 4;
}
.g5_1{
fill: none;
stroke: #B6AC84;
stroke-width: 0.763;
stroke-linecap: butt;
stroke-linejoin: miter;
stroke-miterlimit: 4;
}
.g6_1{
fill: none;
stroke: #9E925E;
stroke-width: 0.763;
stroke-linecap: butt;
stroke-linejoin: miter;
}
.g7_1{
fill: none;
stroke: #231F20;
stroke-width: 0.763;
stroke-linecap: round;
stroke-linejoin: round;
stroke-miterlimit: 4;
stroke-dasharray: 0,3;
}
.g8_1{
fill: none;
stroke: #9E925E;
stroke-width: 0.763;
stroke-linecap: butt;
stroke-linejoin: miter;
stroke-miterlimit: 4;
}
.g9_1{
fill: none;
stroke: #231F20;
stroke-width: 0.594;
stroke-linecap: round;
stroke-linejoin: round;
stroke-miterlimit: 4;
stroke-dasharray: 0,2;
}
.ga_1{
fill: none;
stroke: #D8D2BC;
stroke-width: 4.583;
stroke-linecap: butt;
stroke-linejoin: miter;
stroke-miterlimit: 4;
}
.gb_1{
fill: #F0EDE5;
}
.gc_1{
fill: #D8D2BC;
}
.gd_1{
fill: #9E925E;
}
.ge_1{
fill: #C0B694;
}
.gf_1{
fill: #FFFFFF;
}
.gg_1{
fill: #FAF9F6;
}
.gh_1{
fill: #FFFFFF;
stroke: #9E925E;
stroke-width: 0.763;
stroke-linecap: butt;
stroke-linejoin: miter;
stroke-miterlimit: 4;
}
.gi_1{
fill: #231F20;
}
]]></style>
</defs>
<path d="M0,967H909.4V606.7H0V967Z" class="g0_1"/>
<path clip-path="url(#c0_1)" d="M0,670.2H921.6M0,794.2H921.6M0,918.9H921.6" class="g1_1"/>
<path d="M60.6,490.4H881.9" class="g2_1"/>
<path d="M61.2,596.5h8.7v-8.7H61.2v8.7Z" class="g3_1"/>
<path d="M67.4,650.4H75v-7.5H67.4v7.5Zm287.3,0h7.5v-7.5h-7.5v7.5Zm323.9,0h7.5v-7.5h-7.5v7.5Z" class="g4_1"/>
<path d="M60,661.4H881V631.9H60v29.5Z" class="g5_1"/>
<path d="M60,959.4V929.8m-.4,-.3H451.8m-.4,29.9V929.8m-391.8,30H451.8" class="g6_1"/>
<path d="M66.7,949h7.5v-7.5H66.7V949Z" class="g4_1"/>
<path d="M696.7,947.2H872.4" class="g7_1"/>
<path d="M651.2,959.2H881.6V929.5H651.2v29.7Z" class="g8_1"/>
<path d="M66.9,717.4h7.5v-7.5H66.9v7.5Zm0,13.8h7.5v-7.5H66.9v7.5Z" class="g4_1"/>
<path d="M182.3,745.2H316.5" class="g9_1"/>
<path d="M66.9,758.7h7.5v-7.5H66.9v7.5Zm0,13.7h7.5v-7.5H66.9v7.5Z" class="g4_1"/>
<path d="M59.4,779.9H351.3V702.5H59.4v77.4Z" class="g5_1"/>
<path d="M388.7,719.6h7.5v-7.5h-7.5v7.5Zm0,15.4h7.5v-7.5h-7.5V735Zm0,12.1h7.5v-7.5h-7.5v7.5Z" class="g4_1"/>
<path d="M378.5,757.3H603.8V701.9H378.5v55.4Z" class="g5_1"/>
<path d="M802.5,701.6V680.5m-.4,-.4h79.1m-.4,21.5V680.5M633.3,756.9V702.3m-.4,-.4H763.5M632.9,757.3H763.5m0,-.4V702.3m0,-.4h39m-39,55.4h39m0,-.4V702.3m0,-.4h78.7m-.4,55V702.3m-78.3,55h78.7" class="g6_1"/>
<path d="M640,718.8h7.5v-7.6H640v7.6Zm0,15.2h7.5v-7.5H640V734Zm0,15.3h7.5v-7.5H640v7.5Zm139.2,-2.1h7.5v-7.5h-7.5v7.5Z" class="g4_1"/>
<path d="M814,733.7h47.7" class="g7_1"/>
<path d="M659.1,779.2h13" class="g7_1"/>
<path d="M685.9,779.2h13" class="g7_1"/>
<path d="M712.6,779.2h26.1" class="g7_1"/>
<path d="M67.7,841.3h7.5v-7.5H67.7v7.5Zm0,13.7h7.5v-7.5H67.7V855Z" class="g4_1"/>
<path d="M180.8,869H301" class="g9_1"/>
<path d="M67.7,882.5h7.5V875H67.7v7.5Zm0,13.8h7.5v-7.5H67.7v7.5Z" class="g4_1"/>
<path d="M60,904H351.3V826.1H60V904Z" class="g5_1"/>
<path d="M388.7,843.8h7.5v-7.5h-7.5v7.5Zm0,13.7h7.5V850h-7.5v7.5Zm0,13.8h7.5v-7.5h-7.5v7.5Z" class="g4_1"/>
<path d="M378.5,881.5H603.8V826.1H378.5v55.4Z" class="g5_1"/>
<path d="M638.1,902.3h13.1" class="g7_1"/>
<path d="M664.9,902.3h13" class="g7_1"/>
<path d="M691.6,902.3h26.1" class="g7_1"/>
<path d="M803.8,825.8V804.7m-.4,-.4h78.5m-.3,21.5V804.7M633.3,881.1V826.5m-.4,-.4H757.2M632.9,881.5H757.2m0,0h46.6M757.2,826.1h46.6m0,55V826.5m0,-.4h78.1m-.3,55V826.5m-77.8,55h78.1" class="g6_1"/>
<path d="M640,843h7.5v-7.6H640V843Zm0,15.2h7.5v-7.5H640v7.5Zm0,15.3h7.5V866H640v7.5Z" class="g4_1"/>
<path d="M815.3,857.8H863" class="g7_1"/>
<path d="M0,452.7H909.4V62.8H0V452.7Z" class="g0_1"/>
<path clip-path="url(#c0_1)" d="M-21.6,452.7H931.1" class="ga_1"/>
<path d="M0,1286.2H909.4v-13H0v13Z" class="gb_1"/>
<path d="M0,452.7H34.6V0H0V452.7Z" class="gc_1"/>
<path d="M0,65H757.9V0H0V65Z" class="gd_1"/>
<path d="M0,1286.2H34.6V462.1H0v824.1Z" class="ge_1"/>
<path d="M0,65H909.4V61.9H0V65Z" class="gd_1"/>
<path d="M473,252.3H882.7V130.6H473V252.3Z" class="gf_1"/>
<path d="M473,252.3H882.7V130.6H473V252.3Z" class="g8_1"/>
<path d="M473,123H882.7V77H473v46Z" class="gf_1"/>
<path d="M473,123H882.7V77H473v46Z" class="g8_1"/>
<path d="M60,441.3H459.6V77.4H60V441.3Z" class="gf_1"/>
<path d="M127.7,120H290.8" class="g7_1"/>
<path d="M378.7,120h70.2" class="g7_1"/>
<path d="M104.5,144.5H289.1" class="g7_1"/>
<path d="M351.3,144.5H449" class="g7_1"/>
<path d="M139.9,168.9h170" class="g7_1"/>
<path d="M382.6,168.9h64.1" class="g7_1"/>
<path d="M88.7,193.4H221" class="g7_1"/>
<path d="M255.5,193.4H449" class="g7_1"/>
<path d="M103,218.6H449" class="g7_1"/>
<path d="M69.6,238.1h6.7v-6.7H69.6v6.7Z" class="g3_1"/>
<path d="M69.6,263.7h6.7v-6.6H69.6v6.6Z" class="g3_1"/>
<path d="M120.8,312.4H300.1" class="g7_1"/>
<path d="M338.2,312.4H449" class="g7_1"/>
<path d="M127.7,358.5H289.1" class="g7_1"/>
<path d="M376.9,358.5H449" class="g7_1"/>
<path d="M104.5,382.9H289.1" class="g7_1"/>
<path d="M351.3,382.9H449" class="g7_1"/>
<path d="M105.3,407.4H348.7" class="g7_1"/>
<path d="M375.6,407.4H398" class="g7_1"/>
<path d="M428.7,407.4h20.2" class="g7_1"/>
<path d="M119.8,431.8H160" class="g7_1"/>
<path d="M202.8,431.8H449" class="g7_1"/>
<path d="M60,441.3H459.6V77.4H60V441.3Zm-.1,777.3H458.7V1118.2H59.9v100.4Z" class="g8_1"/>
<path d="M60.1,996.9H458" class="g2_1"/>
<path d="M60.7,1033.4h8.7v-8.6H60.7v8.6Z" class="g3_1"/>
<path d="M139.7,1033.4h8.7v-8.6h-8.7v8.6Z" class="g3_1"/>
<path d="M241.1,1033.4h8.7v-8.6h-8.7v8.6Z" class="g3_1"/>
<path d="M60.7,1068.3h8.7v-8.6H60.7v8.6Z" class="g3_1"/>
<path d="M281.2,1068.3h8.7v-8.6h-8.7v8.6Z" class="g3_1"/>
<path d="M125.7,1087.3h8.6v-8.7h-8.6v8.7Z" class="g3_1"/>
<path d="M228.8,1087.3h8.7v-8.7h-8.7v8.7Z" class="g3_1"/>
<path d="M326.5,1087.3h8.7v-8.7h-8.7v8.7Z" class="g3_1"/>
<path d="M253.9,1104.4H444" class="g7_1"/>
<path d="M496.7,996.8H894.6" class="g2_1"/>
<path d="M496.6,1218.5H896.1V1007H496.6v211.5Z" class="gg_1"/>
<path d="M721,1028.8H879.7" class="g7_1"/>
<path d="M522.4,1047.1h13" class="g7_1"/>
<path d="M544,1047.1h13" class="g7_1"/>
<path d="M565.5,1047.1h26.2" class="g7_1"/>
<path d="M496.6,1218.5H896.1V1007H496.6v211.5Z" class="g5_1"/>
<path d="M506.1,1209.1H642.7v-50.3H506.1v50.3Z" class="gh_1"/>
<path d="M647,1209.1H883.9v-50.3H647v50.3Z" class="gh_1"/>
<path d="M680.2,1171.4H874.4" class="g7_1"/>
<path d="M830.6,48.3v.9h-4.3V42.4h4.2v.9h-3.3v2H830v.8h-2.8v2.2Z" class="gi_1"/>
<path d="M831.7,42.1v7.1h.9V42Z" class="gi_1"/>
<path d="M837.2,46c0,-1.1,-.5,-1.5,-1.3,-1.5c-.9,0,-1.3,.5,-1.4,1.5Zm-3.5,.4c0,-1.7,.7,-2.7,2.2,-2.7c1.3,0,2.1,.8,2.1,2.5c0,.1,0,.3,0,.4h-3.5c.1,1.4,.6,1.9,1.8,1.9c.5,0,1,-.1,1.4,-.3l.1,.7c-.4,.2,-1,.4,-1.6,.4c-1.8,0,-2.5,-.9,-2.5,-2.9Z" class="gi_1"/>
<path d="M842.2,44.8c-.3,-.2,-.7,-.3,-1.1,-.3c-1.2,0,-1.6,.6,-1.6,2c0,1.5,.5,2,1.6,2c.4,0,.8,-.1,1.1,-.3l.1,.7c-.3,.3,-.8,.4,-1.4,.4c-1.5,0,-2.3,-.9,-2.3,-2.8c0,-1.9,.7,-2.8,2.3,-2.8c.5,0,1,.1,1.3,.3Z" class="gi_1"/>
<path d="M844.3,44.5v3.3c0,.5,.3,.8,.7,.8c.2,0,.4,-.1,.5,-.1v.6c-.1,.1,-.4,.2,-.7,.2c-.9,0,-1.4,-.5,-1.4,-1.5V44.5h-.8v-.7h.8l.2,-1.3l.7,-.1v1.4h1.3v.7Z" class="gi_1"/>
<path d="M846.4,49.2V43.8h.7V45c.4,-.8,1,-1.3,1.7,-1.3c.2,0,.4,.1,.5,.1v.9c-.2,-.1,-.4,-.1,-.6,-.1c-.8,0,-1.5,.7,-1.5,1.9v2.7Z" class="gi_1"/>
<path d="M852.9,46.7c-.2,0,-.6,-.2,-1.1,-.2c-.9,0,-1.3,.4,-1.3,1c0,.8,.5,1.1,1.1,1.1c.7,0,1.3,-.5,1.3,-.9Zm.1,1.8h-.1c-.3,.5,-.9,.8,-1.6,.8c-.9,0,-1.6,-.5,-1.6,-1.8c0,-1,.6,-1.6,1.9,-1.6c.5,0,.9,.1,1.3,.2v-.5c0,-.9,-.4,-1.2,-1.3,-1.2c-.6,0,-1,.1,-1.5,.4L850,44c.5,-.2,1.1,-.3,1.8,-.3c1.4,0,1.9,.6,1.9,2v3.5h-.6Z" class="gi_1"/>
<path d="M857.1,44.5c-.6,0,-1.1,.2,-1.3,.6v2.8c.2,.4,.6,.7,1.3,.7c.8,0,1.4,-.4,1.4,-2.1c0,-1.6,-.5,-2,-1.4,-2m.1,4.8c-.7,0,-1.2,-.3,-1.6,-.7l-.1,.6h-.6V42.1l.9,-.1v1.6l-.1,.7h.1c.4,-.4,.9,-.6,1.5,-.6c1.3,0,2,.7,2,2.8c0,2,-.7,2.8,-2.1,2.8Z" class="gi_1"/>
<path d="M863.5,46c0,-1.1,-.5,-1.5,-1.3,-1.5c-.9,0,-1.3,.5,-1.4,1.5Zm-3.5,.4c0,-1.7,.7,-2.7,2.2,-2.7c1.3,0,2.1,.8,2.1,2.5c0,.1,0,.3,0,.4h-3.5c.1,1.4,.6,1.9,1.8,1.9c.5,0,1,-.1,1.4,-.3l.1,.7c-.4,.2,-1,.4,-1.6,.4c-1.8,0,-2.5,-.9,-2.5,-2.9Z" class="gi_1"/>
<path d="M865.4,49.2V42.1l.9,-.1v7.2Z" class="gi_1"/>
<image x="793" y="12" width="77" height="13" xlink:href="shade/1.png"/>
<path d="M825.9,26.5c-.7,0,-1,.6,-1.1,1.3c-.1,.8,-.5,3.5,-.6,4.1c-.1,.4,-.1,.9,-.5,1c-.4,.2,-.9,0,-1.3,-.4C822,32.2,815.9,27,815.9,27c-.3,-.3,-.8,-.5,-1.2,-.5c-.9,0,-1.8,.6,-1.8,2v8.6c0,.7,.5,1.1,1,1.1c.7,0,1.1,-.4,1.2,-1c0,0,.6,-4.1,.7,-4.6c.1,-.5,.2,-.9,.7,-1.1c.5,-.1,.9,.1,1.6,.7c.6,.6,6.1,5.5,6.1,5.5c.4,.4,.7,.5,1.3,.5c.6,0,1.5,-.2,1.5,-1.8V27.8c0,-.8,-.5,-1.3,-1.1,-1.3Z" class="gi_1"/>
<path d="M865.2,35.7c-4.8,1.1,-10.3,0,-10.3,-3.4c0,-2.6,2.4,-3.6,4.3,-3.8c1.9,-.1,3.5,.3,4.2,1.1c.5,.5,.4,1.2,-.6,1.3c-.9,0,-2.5,.1,-3.9,.1c-.8,.1,-1.2,.5,-1.2,1.1c0,.4,.3,.9,1.2,.9c1.3,0,4.6,.1,6.3,.1c1.1,0,1.6,-.6,1.6,-1.9c0,-2,-1.8,-5,-7,-5c-4.8,0,-8.2,2.4,-8.2,6.3c0,5.4,8,7.1,14,5.1c.5,-.2,1,-.6,.9,-1.2c-.2,-.6,-.6,-.8,-1.3,-.7Z" class="gi_1"/>
<path d="M809.7,35.7c-4.8,1.1,-10.2,0,-10.2,-3.4c0,-2.6,2.3,-3.6,4.2,-3.8c2,-.1,3.5,.3,4.3,1.1c.5,.5,.3,1.2,-.6,1.3c-.9,0,-2.6,.1,-4,.1c-.8,.1,-1.2,.5,-1.2,1.1c0,.4,.4,.9,1.3,.9c1.3,0,4.6,.1,6.2,.1c1.1,0,1.6,-.6,1.6,-1.9c0,-2,-1.8,-5,-7,-5c-4.7,0,-8.2,2.4,-8.2,6.3c0,5.4,8.1,7.1,14,5.1c.6,-.2,1.1,-.6,.9,-1.2c-.1,-.6,-.6,-.8,-1.3,-.7Z" class="gi_1"/>
<path d="M846.7,30.5c.2,3,.4,5.4,.5,6.3c.1,1.1,.7,1.4,1.3,1.4c.5,0,1.1,-.3,1.2,-1.4c.1,-.9,.4,-3.9,.5,-6.8c0,-.2,-.1,-.2,-.2,-.2l-3.1,.5c-.1,0,-.2,.1,-.2,.2Z" class="gi_1"/>
<path d="M848.5,26.2c-1.4,0,-1.9,1.2,-1.8,1.8c0,.2,0,.5,0,1c0,.1,.1,.2,.2,.1l3.3,-.5c.1,0,.1,-.1,.1,-.2c0,-.1,0,-.3,0,-.3c0,-.7,-.4,-1.9,-1.8,-1.9Z" class="gi_1"/>
<path d="M843.7,31c-1.1,0,-4.4,0,-6.6,0c-1,0,-1.2,.6,-1.2,1.1c0,.4,.2,.9,1.2,.9c1.5,.1,3.3,.2,4.2,.2c1.2,.1,1.2,.7,.8,1.2c-.8,1,-2.7,1.7,-4.7,1.7c-2.6,0,-5.5,-1.5,-5.5,-3.8c0,-2.2,2.5,-4.7,9.8,-3.6c.6,0,1.2,-.1,1.4,-.7c.2,-.6,-.2,-1,-1.1,-1.2c-1.6,-.5,-3.1,-.6,-4.6,-.6c-4.9,0,-8.8,2.4,-8.8,6.2c0,4,3.9,6,8.8,6c5.5,0,8.1,-3,8.1,-5.6c0,-1.3,-.7,-1.8,-1.8,-1.8Z" class="gi_1"/>
<path d="M473,440.9H883.1V259.6H473V440.9Z" class="gf_1"/>
<path d="M517.9,302.7H872.1" class="g7_1"/>
<path d="M499.6,323.3h45.6" class="g7_1"/>
<path d="M575.8,323.3h44.5" class="g7_1"/>
<path d="M685.5,323.3h51.7" class="g7_1"/>
<path d="M814.8,323.3h56.3" class="g7_1"/>
<path d="M532.4,343.9h52.1" class="g7_1"/>
<path d="M627.3,343.9H872.1" class="g7_1"/>
<path d="M583.2,366.1H872.1" class="g7_1"/>
<path d="M566.8,385.2H872.1" class="g7_1"/>
<path d="M585.6,407.3H872.1" class="g7_1"/>
<path d="M482.6,431.9h8.7v-8.7h-8.7v8.7Zm182.5,-.8h8.7v-8.6h-8.7v8.6Z" class="g4_1"/>
<path d="M473,440.9H883.1V259.6H473V440.9Z" class="g8_1"/>
<path d="M586.5,352.8v4.8h1c.1,-.6,.4,-1,1,-1c1.1,0,1.1,1,1.1,2.2c0,.9,0,1.9,-1.1,1.9c-.8,0,-1,-.6,-1,-1.3h-1.1c0,1.1,.3,2.1,2.1,2.1c2.1,0,2.3,-1.6,2.3,-3c0,-1.9,-.6,-2.8,-1.8,-2.8c-.6,0,-1.2,.2,-1.4,.6v-2.5h2.8v-1Z" class="gi_1"/>
<path d="M602.7,358.5l1.9,-4.4v4.4Zm1.9,.9v2.1h1v-2.1h1v-.9h-1V353h-1.5l-2.4,5.5v.9Z" class="gi_1"/>
<path d="M586.5,374.1v4.7h1c.1,-.5,.4,-1,1,-1c1.1,0,1.1,1,1.1,2.2c0,.9,0,1.9,-1.1,1.9c-.8,0,-1,-.6,-1,-1.3h-1.1c0,1.2,.3,2.1,2.1,2.1c2.1,0,2.3,-1.6,2.3,-2.9c0,-2,-.6,-2.9,-1.8,-2.9c-.6,0,-1.2,.3,-1.4,.6V375h2.8v-.9Z" class="gi_1"/>
<path d="M602.7,379.7l1.9,-4.4v4.4Zm1.9,1v2h1v-2h1v-1h-1v-5.5h-1.5l-2.4,5.5v1Z" class="gi_1"/>
<path d="M586.5,394.2V399h1c.1,-.6,.4,-1,1,-1c1.1,0,1.1,.9,1.1,2.2c0,.8,0,1.8,-1.1,1.8c-.8,0,-1,-.6,-1,-1.2h-1.1c0,1.1,.3,2.1,2.1,2.1c2.1,0,2.3,-1.6,2.3,-3c0,-2,-.6,-2.9,-1.8,-2.9c-.6,0,-1.2,.3,-1.4,.7v-2.5h2.8v-1Z" class="gi_1"/>
<path d="M602.7,399.8l1.9,-4.4v4.4Zm1.9,1v2.1h1v-2.1h1v-1h-1v-5.4h-1.5l-2.4,5.4v1Z" class="gi_1"/>
<image clip-path="url(#c1_1)" preserveAspectRatio="none" x="555" y="1178" width="89" height="34" xlink:href="img/1.png"/>
<path d="M68.4,1236.6H76v-7.5H68.4v7.5ZM156.5,694.5H164V687h-7.5v7.5ZM134,817.9h7.5v-7.5H134v7.5Z" class="g4_1"/>
</svg>