<?xml version="1.0" encoding="UTF-8" standalone="no"?>
<!DOCTYPE svg PUBLIC "-//W3C//DTD SVG 1.1//EN"
"http://www.w3.org/Graphics/SVG/1.1/DTD/svg11.dtd">
<svg viewBox="0 0 909 1286" version="1.1" xmlns="http://www.w3.org/2000/svg" xmlns:xlink="http://www.w3.org/1999/xlink">
<defs>
<style type="text/css"><![CDATA[
.g0{
fill: #DCDDDE;
}
.g1{
fill: #949698;
}
.g2{
fill: #231F20;
}
]]></style>
</defs>
<path d="M0,1286.2H909.4v-13H0v13Z" class="g0"/>
<path d="M0,65H909.4V61.9H0V65Z" class="g1"/>
<path d="M830.6,48.3v.9h-4.3V42.4h4.2v.9h-3.3v2H830v.8h-2.8v2.2Z" class="g2"/>
<path d="M831.7,42.1v7.1h.9V42Z" class="g2"/>
<path d="M837.2,46c0,-1.1,-.5,-1.5,-1.3,-1.5c-.9,0,-1.3,.5,-1.4,1.5Zm-3.5,.4c0,-1.7,.7,-2.7,2.2,-2.7c1.3,0,2.1,.8,2.1,2.5c0,.1,0,.3,0,.4h-3.5c.1,1.4,.6,1.9,1.8,1.9c.5,0,1,-.1,1.4,-.3l.1,.7c-.4,.2,-1,.4,-1.6,.4c-1.8,0,-2.5,-.9,-2.5,-2.9Z" class="g2"/>
<path d="M842.2,44.8c-.3,-.2,-.7,-.3,-1.1,-.3c-1.2,0,-1.6,.6,-1.6,2c0,1.5,.5,2,1.6,2c.4,0,.8,-.1,1.1,-.3l.1,.7c-.3,.3,-.8,.4,-1.4,.4c-1.5,0,-2.3,-.9,-2.3,-2.8c0,-1.9,.7,-2.8,2.3,-2.8c.5,0,1,.1,1.3,.3Z" class="g2"/>
<path d="M844.3,44.5v3.3c0,.5,.3,.8,.7,.8c.2,0,.4,-.1,.5,-.1v.6c-.1,.1,-.4,.2,-.7,.2c-.9,0,-1.4,-.5,-1.4,-1.5V44.5h-.8v-.7h.8l.2,-1.3l.7,-.1v1.4h1.3v.7Z" class="g2"/>
<path d="M846.4,49.2V43.8h.7V45c.4,-.8,1,-1.3,1.7,-1.3c.2,0,.4,.1,.5,.1v.9c-.2,-.1,-.4,-.1,-.6,-.1c-.8,0,-1.5,.7,-1.5,1.9v2.7Z" class="g2"/>
<path d="M852.9,46.7c-.2,0,-.6,-.2,-1.1,-.2c-.9,0,-1.3,.4,-1.3,1c0,.8,.5,1.1,1.1,1.1c.7,0,1.3,-.5,1.3,-.9Zm.1,1.8h-.1c-.3,.5,-.9,.8,-1.6,.8c-.9,0,-1.6,-.5,-1.6,-1.8c0,-1,.6,-1.6,1.9,-1.6c.5,0,.9,.1,1.3,.2v-.5c0,-.9,-.4,-1.2,-1.3,-1.2c-.6,0,-1,.1,-1.5,.4L850,44c.5,-.2,1.1,-.3,1.8,-.3c1.4,0,1.9,.6,1.9,2v3.5h-.6Z" class="g2"/>
<path d="M857.1,44.5c-.6,0,-1.1,.2,-1.3,.6v2.8c.2,.4,.6,.7,1.3,.7c.8,0,1.4,-.4,1.4,-2.1c0,-1.6,-.5,-2,-1.4,-2m.1,4.8c-.7,0,-1.2,-.3,-1.6,-.7l-.1,.6h-.6V42.1l.9,-.1v1.6l-.1,.7h.1c.4,-.4,.9,-.6,1.5,-.6c1.3,0,2,.7,2,2.8c0,2,-.7,2.8,-2.1,2.8Z" class="g2"/>
<path d="M863.5,46c0,-1.1,-.5,-1.5,-1.3,-1.5c-.9,0,-1.3,.5,-1.4,1.5Zm-3.5,.4c0,-1.7,.7,-2.7,2.2,-2.7c1.3,0,2.1,.8,2.1,2.5c0,.1,0,.3,0,.4h-3.5c.1,1.4,.6,1.9,1.8,1.9c.5,0,1,-.1,1.4,-.3l.1,.7c-.4,.2,-1,.4,-1.6,.4c-1.8,0,-2.5,-.9,-2.5,-2.9Z" class="g2"/>
<path d="M865.4,49.2V42.1l.9,-.1v7.2Z" class="g2"/>
<image x="793" y="12" width="77" height="13" xlink:href="shade/1.png"/>
<path d="M825.9,26.5c-.7,0,-1,.6,-1.1,1.3c-.1,.8,-.5,3.5,-.6,4.1c-.1,.4,-.1,.9,-.5,1c-.4,.2,-.9,0,-1.3,-.4C822,32.2,815.9,27,815.9,27c-.3,-.3,-.8,-.5,-1.2,-.5c-.9,0,-1.8,.6,-1.8,2v8.6c0,.7,.5,1.1,1,1.1c.7,0,1.1,-.4,1.2,-1c0,0,.6,-4.1,.7,-4.6c.1,-.5,.2,-.9,.7,-1.1c.5,-.1,.9,.1,1.6,.7c.6,.6,6.1,5.5,6.1,5.5c.4,.4,.7,.5,1.3,.5c.6,0,1.5,-.2,1.5,-1.8V27.8c0,-.8,-.5,-1.3,-1.1,-1.3Z" class="g2"/>
<path d="M865.2,35.7c-4.8,1.1,-10.3,0,-10.3,-3.4c0,-2.6,2.4,-3.6,4.3,-3.8c1.9,-.1,3.5,.3,4.2,1.1c.5,.5,.4,1.2,-.6,1.3c-.9,0,-2.5,.1,-3.9,.1c-.8,.1,-1.2,.5,-1.2,1.1c0,.4,.3,.9,1.2,.9c1.3,0,4.6,.1,6.3,.1c1.1,0,1.6,-.6,1.6,-1.9c0,-2,-1.8,-5,-7,-5c-4.8,0,-8.2,2.4,-8.2,6.3c0,5.4,8,7.1,14,5.1c.5,-.2,1,-.6,.9,-1.2c-.2,-.6,-.6,-.8,-1.3,-.7Z" class="g2"/>
<path d="M809.7,35.7c-4.8,1.1,-10.2,0,-10.2,-3.4c0,-2.6,2.3,-3.6,4.2,-3.8c2,-.1,3.5,.3,4.3,1.1c.5,.5,.3,1.2,-.6,1.3c-.9,0,-2.6,.1,-4,.1c-.8,.1,-1.2,.5,-1.2,1.1c0,.4,.4,.9,1.3,.9c1.3,0,4.6,.1,6.2,.1c1.1,0,1.6,-.6,1.6,-1.9c0,-2,-1.8,-5,-7,-5c-4.7,0,-8.2,2.4,-8.2,6.3c0,5.4,8.1,7.1,14,5.1c.6,-.2,1.1,-.6,.9,-1.2c-.1,-.6,-.6,-.8,-1.3,-.7Z" class="g2"/>
<path d="M846.7,30.5c.2,3,.4,5.4,.5,6.3c.1,1.1,.7,1.4,1.3,1.4c.5,0,1.1,-.3,1.2,-1.4c.1,-.9,.4,-3.9,.5,-6.8c0,-.2,-.1,-.2,-.2,-.2l-3.1,.5c-.1,0,-.2,.1,-.2,.2Z" class="g2"/>
<path d="M848.5,26.2c-1.4,0,-1.9,1.2,-1.8,1.8c0,.2,0,.5,0,1c0,.1,.1,.2,.2,.1l3.3,-.5c.1,0,.1,-.1,.1,-.2c0,-.1,0,-.3,0,-.3c0,-.7,-.4,-1.9,-1.8,-1.9Z" class="g2"/>
<path d="M843.7,31c-1.1,0,-4.4,0,-6.6,0c-1,0,-1.2,.6,-1.2,1.1c0,.4,.2,.9,1.2,.9c1.5,.1,3.3,.2,4.2,.2c1.2,.1,1.2,.7,.8,1.2c-.8,1,-2.7,1.7,-4.7,1.7c-2.6,0,-5.5,-1.5,-5.5,-3.8c0,-2.2,2.5,-4.7,9.8,-3.6c.6,0,1.2,-.1,1.4,-.7c.2,-.6,-.2,-1,-1.1,-1.2c-1.6,-.5,-3.1,-.6,-4.6,-.6c-4.9,0,-8.8,2.4,-8.8,6.2c0,4,3.9,6,8.8,6c5.5,0,8.1,-3,8.1,-5.6c0,-1.3,-.7,-1.8,-1.8,-1.8Z" class="g2"/>
</svg>