<?xml version="1.0" encoding="UTF-8" standalone="no"?>
<!DOCTYPE svg PUBLIC "-//W3C//DTD SVG 1.1//EN"
"http://www.w3.org/Graphics/SVG/1.1/DTD/svg11.dtd">
<svg viewBox="0 0 931 1286" version="1.1" xmlns="http://www.w3.org/2000/svg" xmlns:xlink="http://www.w3.org/1999/xlink">
<defs>
<clipPath id="c0_1"><path d="M0,1286.2V0H931.1V1286.2Z"/></clipPath>
<style type="text/css"><![CDATA[
.g0_1{
fill: #00682D;
}
.g1_1{
fill: #FFFFFF;
}
.g2_1{
fill: none;
stroke: #88BD1F;
stroke-width: 0.763;
stroke-linecap: butt;
stroke-linejoin: miter;
stroke-miterlimit: 4;
}
.g3_1{
fill: none;
stroke: #88BD1F;
stroke-width: 0.763;
stroke-linecap: butt;
stroke-linejoin: miter;
}
.g4_1{
fill: none;
stroke: #00682D;
stroke-width: 21.388;
stroke-linecap: butt;
stroke-linejoin: miter;
}
.g5_1{
fill: none;
stroke: #88BD1F;
stroke-width: 1.527;
stroke-linecap: butt;
stroke-linejoin: miter;
stroke-miterlimit: 4;
}
.g6_1{
fill: none;
stroke: #88BD1F;
stroke-width: 1.145;
stroke-linecap: butt;
stroke-linejoin: miter;
stroke-miterlimit: 4;
}
.g7_1{
fill: none;
stroke: #00682D;
stroke-width: 0.381;
stroke-linecap: butt;
stroke-linejoin: miter;
stroke-miterlimit: 4;
}
.g8_1{
fill: none;
stroke: #00682D;
stroke-width: 1.527;
stroke-linecap: butt;
stroke-linejoin: miter;
}
.g9_1{
fill: none;
stroke: #FFFFFF;
stroke-width: 1.909;
stroke-linecap: butt;
stroke-linejoin: miter;
}
.ga_1{
fill: none;
stroke: #000000;
stroke-width: 0.381;
stroke-linecap: butt;
stroke-linejoin: miter;
}
]]></style>
</defs>
<path d="M658.3,102H931.1V21.7H658.3V102Z" class="g0_1"/>
<path d="M658.3,102H918.1V21.7H658.3V102Z" class="g0_1"/>
<path d="M714.3,66.6c2.1,-.9,9,.9,14.8,4.5c5.8,3.5,8.2,6.7,8,7.2c-.2,.4,-5.2,-1.5,-8.8,-3.1c-3.4,-1.6,-7.9,-2.3,-10.8,-1.1c-2.9,1.2,-5.5,4.9,-6.8,8.5c-1.3,3.7,-3.5,8.6,-3.9,8.4c-.5,-.1,-1,-4.1,.5,-10.7c1.5,-6.6,4.9,-12.9,7,-13.7Z" class="g1_1"/>
<path d="M676.5,69.8c-.2,-.7,8.1,-3.3,12.9,-4.2c6.2,-1.2,16.3,-1.7,17.1,-.2c1.2,2.2,-3.5,9.4,-7.1,13.4c-3.3,3.7,-9.9,8.9,-10.2,8.7c-.3,-.3,3.4,-5.2,5.7,-8.9c2.4,-3.7,3.4,-6.5,3,-7.8c-.8,-2.3,-7.3,-2.3,-11.9,-1.7c-4.5,.7,-9.4,1.2,-9.5,.7Z" class="g1_1"/>
<path d="M743.1,41.8c-.3,-.7,-8.1,3.4,-12,6.2C725.9,51.6,718.4,58.5,719,60.2c.7,2.4,9.1,4,14.5,4.3c5,.2,13.3,-.9,13.3,-1.3c0,-.4,-6,-1.2,-10.3,-2.1c-4.3,-1,-7,-2.1,-7.6,-3.4c-1.1,-2.1,3.4,-6.8,7,-9.6c3.7,-2.8,7.5,-5.9,7.2,-6.3Z" class="g1_1"/>
<path d="M694.2,38.6c.6,-.5,6.7,6,9.1,10.1c2.4,4,4.6,8.4,3.6,10c-1.1,1.7,-8.9,1.7,-14.7,1.1c-5.9,-.6,-14.1,-2.7,-13.9,-3.4c.2,-.8,4.2,-.2,8.3,-.2c4.1,0,11.1,.4,12.6,-1.7c1.5,-2.1,-1,-6.8,-1.9,-8.7c-1,-1.9,-3.7,-6.7,-3.1,-7.2Z" class="g1_1"/>
<path d="M707.4,32.5c-.9,.2,-.4,9,.8,13.6c1.2,4.6,2.8,9.2,4.7,9.6c1.9,.5,7.4,-5.1,11,-9.7c3.7,-4.6,8,-12,7.2,-12.4c-.7,-.4,-3,2.9,-5.9,5.9c-2.8,2.9,-7.5,8.2,-10,7.8c-2.5,-.4,-4.2,-5.5,-4.8,-7.5c-.7,-2,-2.3,-7.3,-3,-7.3Z" class="g1_1"/>
<path d="M780.3,63.3H776c-3.6,0,-3.8,2,-3.8,2.7c0,.8,.2,2.8,3.8,2.8c1.4,0,3,-.2,4.3,-.5Zm4.3,5.9c0,1.1,-.8,2.1,-1.8,2.5c-2.1,.7,-4.5,1.1,-6.8,1.1c-2.5,0,-4.5,-.6,-5.9,-1.8c-1.4,-1.3,-2.2,-3,-2.2,-5c0,-2,.8,-3.6,2.2,-4.8c1.4,-1.2,3.4,-1.8,5.9,-1.8h4.3V57.9c0,-1.7,-1.3,-3.1,-3.5,-3.1c-1.9,0,-3,.3,-4.4,1.1c-.4,.3,-.8,.4,-1.2,.4c-1.1,0,-2,-.8,-2,-1.9c0,-.7,.3,-1.5,1,-1.9c2.2,-1.3,4.2,-1.6,7.2,-1.6c4.6,0,7.2,3.3,7.2,7Z" class="g1_1"/>
<path d="M813.4,58.4c0,-2,-1.7,-3.6,-3.6,-3.6c-1.3,0,-2.6,.4,-3.6,1.1V70.6c0,1.2,-1,2.2,-2.2,2.2c-1.1,0,-2.1,-1,-2.1,-2.2V57.9c0,-2.5,-1.6,-3.1,-3.4,-3.1c-1.5,0,-2.4,.2,-3.7,.6V70.6c0,1.2,-1,2.2,-2.2,2.2c-1.2,0,-2.1,-1,-2.1,-2.2v-16c0,-1.1,.7,-2.1,1.7,-2.5c2.2,-.9,4.3,-1.2,6.7,-1.2c2,0,3.8,.6,5.1,1.7c1.7,-1.1,3.7,-1.7,5.8,-1.7c4.5,0,7.8,3.3,7.8,7.8V70.6c0,1.2,-.9,2.2,-2.1,2.2c-1.2,0,-2.1,-1,-2.1,-2.2Z" class="g1_1"/>
<path d="M835.9,58.9c0,-2.6,-1.5,-4.1,-4,-4.1c-1.4,0,-2.7,.2,-4.1,.5V67.4c1.2,.9,2.6,1.4,4.1,1.4c2.5,0,4,-1.4,4,-4ZM823.5,54.5c0,-1.2,.8,-2.2,1.9,-2.5c2.1,-.7,4.2,-1.1,6.5,-1.1c2.4,0,4.5,.8,6,2.3c1.5,1.5,2.3,3.6,2.3,6v5.2c0,2.5,-.8,4.6,-2.3,6.1c-1.5,1.6,-3.3,2.3,-5.7,2.3c-1.4,0,-3.1,-.5,-4.4,-1.1v9.9c0,1.2,-.9,2.2,-2.1,2.2c-1.2,0,-2.2,-1,-2.2,-2.2Z" class="g1_1"/>
<path d="M846,53c0,-1.2,1,-2.1,2.2,-2.1c1.2,0,2.1,.9,2.1,2.1V70.6c0,1.2,-.9,2.2,-2.1,2.2c-1.2,0,-2.2,-1,-2.2,-2.2Zm2.2,-5.4c-1.4,0,-2.4,-1.1,-2.4,-2.4c0,-1.3,1,-2.4,2.4,-2.4c1.3,0,2.4,1.1,2.4,2.4c0,1.3,-1.1,2.4,-2.4,2.4m0,0c-1.4,0,-2.4,-1.1,-2.4,-2.4c0,-1.3,1,-2.4,2.4,-2.4c1.3,0,2.4,1.1,2.4,2.4c0,1.3,-1.1,2.4,-2.4,2.4Z" class="g1_1"/>
<path d="M856.6,57.1c0,-3.6,2.7,-6.2,6.2,-6.2c1.1,0,2.1,.1,3.2,.3c1,.2,1.7,1,1.7,2c0,1.2,-.9,2,-2.1,2c-.2,0,-.3,0,-.7,0c-.6,-.2,-1.4,-.4,-2.1,-.4c-1,0,-1.9,.9,-1.9,1.9V70.6c0,1.2,-.9,2.2,-2.1,2.2c-1.2,0,-2.2,-1,-2.2,-2.2Z" class="g1_1"/>
<path d="M872,53c0,-1.2,1,-2.1,2.1,-2.1c1.2,0,2.1,.9,2.1,2.1V70.6c0,1.2,-.9,2.2,-2.1,2.2c-1.1,0,-2.1,-1,-2.1,-2.2Zm2.1,-5.4c-1.3,0,-2.4,-1.1,-2.4,-2.4c0,-1.3,1.1,-2.4,2.4,-2.4c1.3,0,2.4,1.1,2.4,2.4c0,1.3,-1.1,2.4,-2.4,2.4Z" class="g1_1"/>
<path d="M885.7,62.8c-2.2,-.8,-4,-2.5,-4,-5.7c0,-3.6,3.1,-6.2,7.2,-6.2c2.8,0,4.3,.4,5.7,1c.8,.3,1.3,1.1,1.3,2c0,1,-.8,2,-1.9,2c-.3,0,-.8,-.1,-1,-.2c-1.1,-.5,-2.8,-.9,-4.2,-.9c-1.7,0,-2.8,.9,-2.8,2.3c0,1,.8,1.7,1.7,2l4.1,1.3c2.7,.9,4.4,2.8,4.4,5.9c0,3.6,-3,6.5,-7.4,6.5c-2.5,0,-4.5,-.5,-6,-1.2c-.8,-.4,-1.3,-1.1,-1.3,-1.9c0,-1.1,.9,-2.1,2.1,-2.1c.3,0,.7,.2,1,.3c1.1,.6,2.4,.9,4.3,.9c2,0,3,-.7,3,-2.1c0,-1.6,-1.2,-2.1,-2.8,-2.6Z" class="g1_1"/>
<path d="M754.1,42c0,-1.2,1,-2.1,2.2,-2.1c1.2,0,2.1,.9,2.1,2.1V66.9c0,1.1,.9,1.9,1.9,1.9c.7,0,1.4,-.1,2.1,-.3c.3,-.1,.5,-.1,.7,-.1c1.2,0,2,.9,2,2c0,1,-.7,1.8,-1.7,2.1c-1,.2,-2,.3,-3.1,.3c-3.5,0,-6.2,-2.7,-6.2,-6.2Z" class="g1_1"/>
<path d="M126.8,161.2H139V148.9H126.8Zm0,0H139V148.9H126.8Zm45.1,0h12.2V148.9H171.9Zm0,0h12.2V148.9H171.9Zm43.4,0h12.3V148.9H215.3Zm0,0h12.3V148.9H215.3Zm43.7,0h12.2V148.9H259Zm0,0h12.2V148.9H259ZM69.5,181H81.7V168.8H69.5Zm0,0H81.7V168.8H69.5Zm39.6,0h12.2V168.8H109.1Zm0,0h12.2V168.8H109.1Z" class="g2_1"/>
<path d="M179.3,165H197m-17.3,6.1v-5.7M197,165h17.3m0,0h17.3m0,0H249m0,0h17.3m0,0h17.3m0,0h17.3m0,0h17.3m0,0h17.4m0,0h17.3m0,0h17.3m0,0h17.3m0,0h17.4m0,0h17.3m0,0h17.3m0,0h17.3m0,0h17.4m-.1,0h17.4m0,0h17.3m0,0h17.3m0,0h17.3m0,0h17.4m0,0h17.3m0,0h17.3m0,0h17.3m0,0h17.4m0,0h17.3m0,0h17.3m0,0H682m0,0h17.3m0,0h17.4m0,0H734m0,0h17.3m0,0h17.3m0,0H786m0,0h17.3m0,0h17.3m0,0h17.3m0,0h17.4m0,0h17.3m0,0h17.7m-.4,6.1v-5.7M179.7,180.7v-9.6m17.3,9.6v-9.6m17.3,9.6v-9.6m17.3,9.6v-9.6m17.4,9.6v-9.6m17.3,9.6v-9.6m17.3,9.6v-9.6m17.3,9.6v-9.6m17.3,9.6v-9.6m17.4,9.6v-9.6m17.3,9.6v-9.6m17.3,9.6v-9.6m17.3,9.6v-9.6m17.4,9.6v-9.6m17.3,9.6v-9.6m17.3,9.6v-9.6m17.3,9.6v-9.6m17.3,9.6v-9.6m17.4,9.6v-9.6m17.3,9.6v-9.6m17.3,9.6v-9.6m17.3,9.6v-9.6m17.4,9.6v-9.6m17.3,9.6v-9.6m17.3,9.6v-9.6m17.3,9.6v-9.6m17.4,9.6v-9.6m17.3,9.6v-9.6m17.3,9.6v-9.6m17.3,9.6v-9.6m17.3,9.6v-9.6m17.4,9.6v-9.6m17.3,9.6v-9.6m17.3,9.6v-9.6m17.3,9.6v-9.6m17.4,9.6v-9.6m17.3,9.6v-9.6m17.3,9.6v-9.6m17.3,9.6v-9.6m17.4,9.6v-9.6m17.3,9.6v-9.6m17.3,9.6v-9.6M179.3,181H197m0,0h17.3m0,0h17.3m0,0H249m0,0h17.3m0,0h17.3m0,0h17.3m0,0h17.3m0,0h17.4m0,0h17.3m0,0h17.3m0,0h17.3m0,0h17.4m0,0h17.3m0,0h17.3m0,0h17.3m0,0h17.4m-.1,0h17.4m0,0h17.3m0,0h17.3m0,0h17.3m0,0h17.4m0,0h17.3m0,0h17.3m0,0h17.3m0,0h17.4m0,0h17.3m0,0h17.3m0,0H682m0,0h17.3m0,0h17.4m0,0H734m0,0h17.3m0,0h17.3m0,0H786m0,0h17.3m0,0h17.3m0,0h17.3m0,0h17.4m0,0h17.3m0,0h17.7m-711,3.9H197m-17.3,6v-5.6m17.3,-.4h17.3m0,0h17.3m0,0H249m0,0h17.3m0,0h17.3m0,0h17.3m0,0h17.3m0,0h17.4m0,0h17.3m0,0h17.3m0,0h17.3m0,0h17.4m0,0h17.3m0,0h17.3m0,0h17.3m0,0h17.4m-.1,0h17.4m0,0h17.3m0,0h17.3m0,0h17.3m0,0h17.4m0,0h17.3m0,0h17.3m0,0h17.3m0,0h17.4m0,0h17.3m0,0h17.3m0,0H682m0,0h17.3m0,0h17.4m0,0H734m0,0h17.3m0,0h17.3m0,0H786m0,0h17.3m0,0h17.3m0,0h17.3m0,0h17.4m0,0h17.3m0,0h17.7m-.4,6v-5.6M179.7,200.5v-9.6m17.3,9.6v-9.6m17.3,9.6v-9.6m17.3,9.6v-9.6m17.4,9.6v-9.6m17.3,9.6v-9.6m17.3,9.6v-9.6m17.3,9.6v-9.6m17.3,9.6v-9.6m17.4,9.6v-9.6m17.3,9.6v-9.6m17.3,9.6v-9.6m17.3,9.6v-9.6m17.4,9.6v-9.6m17.3,9.6v-9.6m17.3,9.6v-9.6m17.3,9.6v-9.6m17.3,9.6v-9.6m17.4,9.6v-9.6m17.3,9.6v-9.6m17.3,9.6v-9.6m17.3,9.6v-9.6m17.4,9.6v-9.6m17.3,9.6v-9.6m17.3,9.6v-9.6m17.3,9.6v-9.6m17.4,9.6v-9.6m17.3,9.6v-9.6m17.3,9.6v-9.6m17.3,9.6v-9.6m17.3,9.6v-9.6m17.4,9.6v-9.6m17.3,9.6v-9.6m17.3,9.6v-9.6m17.3,9.6v-9.6m17.4,9.6v-9.6m17.3,9.6v-9.6m17.3,9.6v-9.6m17.3,9.6v-9.6m17.4,9.6v-9.6m17.3,9.6v-9.6m17.3,9.6v-9.6m-710.6,10H197m0,0h17.3m0,0h17.3m0,0H249m0,0h17.3m0,0h17.3m0,0h17.3m0,0h17.3m0,0h17.4m0,0h17.3m0,0h17.3m0,0h17.3m0,0h17.4m0,0h17.3m0,0h17.3m0,0h17.3m0,0h17.4m-.1,0h17.4m0,0h17.3m0,0h17.3m0,0h17.3m0,0h17.4m0,0h17.3m0,0h17.3m0,0h17.3m0,0h17.4m0,0h17.3m0,0h17.3m0,0H682m0,0h17.3m0,0h17.4m0,0H734m0,0h17.3m0,0h17.3m0,0H786m0,0h17.3m0,0h17.3m0,0h17.3m0,0h17.4m0,0h17.3m0,0h17.7m-711,3.8H197m-17.3,6.1v-5.7m17.3,-.4h17.7m-.4,6.1v-5.7m-34.6,15.3v-9.6m17.3,9.6v-9.6m17.3,9.6v-9.6m-35,10H197m0,0h17.7m11.4,-16.1h17.7m-17.3,6.1v-5.7m17.3,-.4h17.7m-.4,6.1v-5.7m-34.6,15.3v-9.6m17.3,9.6v-9.6m17.3,9.6v-9.6m-35,10h17.7m0,0h17.7m11.4,-16.1h17.7m-17.3,6.1v-5.7m17.3,-.4H308m0,0h17.3m0,0H343m-.4,6.1v-5.7m-69.3,15.3v-9.6m17.3,9.6v-9.6m17.4,9.6v-9.6m17.3,9.6v-9.6m17.3,9.6v-9.6m-69.7,10h17.7m0,0H308m0,0h17.3m0,0H343m27.8,-16.1h17.7m-17.3,6.1v-5.7m17.3,-.4h17.3m0,0h17.3m0,0h17.3m0,0h17.4m0,0h17.3m0,0h17.3m0,0h17.3m0,0h17.4m0,0h17.3m0,0h17.3m0,0H579m0,0h17.4m0,0h17.7m-.4,6.1v-5.7M371.2,220.4v-9.6m17.3,9.6v-9.6m17.3,9.6v-9.6m17.3,9.6v-9.6m17.3,9.6v-9.6m17.4,9.6v-9.6m17.3,9.6v-9.6m17.3,9.6v-9.6m17.3,9.6v-9.6m17.4,9.6v-9.6m17.3,9.6v-9.6m17.3,9.6v-9.6m17.3,9.6v-9.6m17.4,9.6v-9.6m17.3,9.6v-9.6m-242.9,10h17.7m0,0h17.3m0,0h17.3m0,0h17.3m0,0h17.4m0,0h17.3m0,0h17.3m0,0h17.3m0,0h17.4m0,0h17.3m0,0h17.3m0,0H579m0,0h17.4m0,0h17.7m31.4,-16.1h17.7m-17.3,6.1v-5.7m17.3,-.4h17.3m0,0h17.3m0,0h17.3m0,0h17.4m0,0h17.3m0,0h17.3m0,0h17.3m0,0h17.4m0,0h17.3m0,0h17.3m0,0h17.3m0,0H871m0,0h17.8m-.4,6.1v-5.7M645.9,220.4v-9.6m17.3,9.6v-9.6m17.3,9.6v-9.6m17.3,9.6v-9.6m17.3,9.6v-9.6m17.4,9.6v-9.6m17.3,9.6v-9.6m17.3,9.6v-9.6m17.3,9.6v-9.6m17.4,9.6v-9.6m17.3,9.6v-9.6m17.3,9.6v-9.6m17.3,9.6v-9.6m17.3,9.6v-9.6m17.4,9.6v-9.6m-242.9,10h17.7m0,0h17.3m0,0h17.3m0,0h17.3m0,0h17.4m0,0h17.3m0,0h17.3m0,0h17.3m0,0h17.4m0,0h17.3m0,0h17.3m0,0h17.3m0,0H871m0,0h17.8m-709.5,3.8H197m-17.3,6.1V225m17.3,-.4h17.3m0,0h17.3m0,0H249m0,0h17.3m0,0h17.3m0,0h17.3m0,0h17.3m0,0h17.4m0,0h17.3m0,0h17.3m0,0h17.3m0,0h17.4m0,0h17.3m0,0h17.3m0,0h17.3m0,0h17.4m-.1,0h17.4m0,0h17.3m0,0h17.3m0,0h17.3m0,0h17.4m0,0h17.3m0,0h17.3m0,0h17.3m0,0h17.4m0,0h17.3m0,0h17.3m0,0H682m0,0h17.3m0,0h17.4m0,0H734m0,0h17.3m0,0h17.3m0,0H786m0,0h17.3m0,0h17.3m0,0h17.3m0,0h17.4m0,0h17.3m0,0h17.7m-.4,6.1V225M179.7,240.2v-9.5m17.3,9.5v-9.5m17.3,9.5v-9.5m17.3,9.5v-9.5m17.4,9.5v-9.5m17.3,9.5v-9.5m17.3,9.5v-9.5m17.3,9.5v-9.5m17.3,9.5v-9.5m17.4,9.5v-9.5m17.3,9.5v-9.5m17.3,9.5v-9.5m17.3,9.5v-9.5m17.4,9.5v-9.5m17.3,9.5v-9.5m17.3,9.5v-9.5m17.3,9.5v-9.5m17.3,9.5v-9.5m17.4,9.5v-9.5m17.3,9.5v-9.5m17.3,9.5v-9.5m17.3,9.5v-9.5m17.4,9.5v-9.5m17.3,9.5v-9.5m17.3,9.5v-9.5m17.3,9.5v-9.5m17.4,9.5v-9.5m17.3,9.5v-9.5m17.3,9.5v-9.5m17.3,9.5v-9.5m17.3,9.5v-9.5m17.4,9.5v-9.5m17.3,9.5v-9.5m17.3,9.5v-9.5m17.3,9.5v-9.5m17.4,9.5v-9.5m17.3,9.5v-9.5m17.3,9.5v-9.5m17.3,9.5v-9.5m17.4,9.5v-9.5m17.3,9.5v-9.5m17.3,9.5v-9.5m-710.6,9.9H197m0,0h17.3m0,0h17.3m0,0H249m0,0h17.3m0,0h17.3m0,0h17.3m0,0h17.3m0,0h17.4m0,0h17.3m0,0h17.3m0,0h17.3m0,0h17.4m0,0h17.3m0,0h17.3m0,0h17.3m0,0h17.4m-.1,0h17.4m0,0h17.3m0,0h17.3m0,0h17.3m0,0h17.4m0,0h17.3m0,0h17.3m0,0h17.3m0,0h17.4m0,0h17.3m0,0h17.3m0,0H682m0,0h17.3m0,0h17.4m0,0H734m0,0h17.3m0,0h17.3m0,0H786m0,0h17.3m0,0h17.3m0,0h17.3m0,0h17.4m0,0h17.3m0,0h17.7m-711,6.9H197m-17.3,6.1v-5.7m17.3,-.4h17.3m0,0h17.3m0,0h17.7m-.3,6.1v-5.7m-69.3,15.2v-9.5m17.3,9.5v-9.5m17.3,9.5v-9.5m17.3,9.5v-9.5m17.4,9.5v-9.5m-69.7,9.9H197m0,0h17.3m0,0h17.3m0,0h17.7m17.1,-16h17.7m-17.4,6.1v-5.7m17.4,-.4h17.3m0,0h17.3m0,0h17.7m-.4,6.1v-5.7m-69.3,15.2v-9.5m17.4,9.5v-9.5m17.3,9.5v-9.5m17.3,9.5v-9.5m17.3,9.5v-9.5m-69.6,9.9h17.7m0,0h17.3m0,0h17.3m0,0h17.7m15.5,-16h17.7m-17.3,6.1v-5.7m17.3,-.4h17.3m0,0h17.4m0,0H422m-.4,6.1v-5.7m-69.3,15.2v-9.5m17.3,9.5v-9.5m17.3,9.5v-9.5m17.4,9.5v-9.5m17.3,9.5v-9.5m-69.7,9.9h17.7m0,0h17.3m0,0h17.4m0,0H422m17,-16h17.7m-17.3,6.1v-5.7m17.3,-.4H474m0,0h17.4m0,0h17.7m-.4,6.1v-5.7m-69.3,15.2v-9.5m17.3,9.5v-9.5m17.3,9.5v-9.5m17.4,9.5v-9.5m17.3,9.5v-9.5M439,263.5h17.7m0,0H474m0,0h17.4m0,0h17.7m294.2,-16H821m-17.3,6.1v-5.7m17.3,-.4h17.7m-.3,6.1v-5.7m-34.7,15.2v-9.5m17.3,9.5v-9.5m17.4,9.5v-9.5m-35.1,9.9H821m0,0h17.7M116.9,296.1h17.7m-17.3,6.1v-5.7m17.3,-.4H152m0,0h17.3m0,0h17.3m0,0h17.3m0,0h17.3m0,0h17.4m0,0h17.3m0,0h17.3m0,0h17.3m0,0h17.4m0,0h17.3m0,0h17.3m0,0h17.3m0,0h17.4m0,0h17.3m0,0h17.3m0,0h17.3m0,0h17.3m0,0h17.4m0,0h17.3m0,0h17.3m0,0h17.3m0,0h17.4m0,0h17.3m0,0h17.3m0,0H585m0,0h17.4m0,0h17.3m0,0H637m0,0h17.3m0,0h17.3m0,0h17.7m-.3,6.1v-5.7M117.3,311.8v-9.6m17.3,9.6v-9.6m17.4,9.6v-9.6m17.3,9.6v-9.6m17.3,9.6v-9.6m17.3,9.6v-9.6m17.3,9.6v-9.6m17.4,9.6v-9.6m17.3,9.6v-9.6m17.3,9.6v-9.6m17.3,9.6v-9.6m17.4,9.6v-9.6m17.3,9.6v-9.6m17.3,9.6v-9.6m17.3,9.6v-9.6m17.4,9.6v-9.6m17.3,9.6v-9.6m17.3,9.6v-9.6m17.3,9.6v-9.6m17.3,9.6v-9.6m17.4,9.6v-9.6m17.3,9.6v-9.6m17.3,9.6v-9.6m17.3,9.6v-9.6m17.4,9.6v-9.6m17.3,9.6v-9.6m17.3,9.6v-9.6m17.3,9.6v-9.6m17.4,9.6v-9.6m17.3,9.6v-9.6m17.3,9.6v-9.6m17.3,9.6v-9.6m17.3,9.6v-9.6m17.4,9.6v-9.6m-572.1,10h17.7m0,0H152m0,0h17.3m0,0h17.3m0,0h17.3m0,0h17.3m0,0h17.4m0,0h17.3m0,0h17.3m0,0h17.3m0,0h17.4m0,0h17.3m0,0h17.3m0,0h17.3m0,0h17.4m0,0h17.3m0,0h17.3m0,0h17.3m0,0h17.3m0,0h17.4m0,0h17.3m0,0h17.3m0,0h17.3m0,0h17.4m0,0h17.3m0,0h17.3m0,0H585m0,0h17.4m0,0h17.3m0,0H637m0,0h17.3m0,0h17.3m0,0h17.7m45.5,-16.1h17.7m-17.3,6.1v-5.7m17.3,-.4h17.4m0,0h17.7m-.4,6.1v-5.7m-52,15.3v-9.6m17.3,9.6v-9.6m17.4,9.6v-9.6m17.3,9.6v-9.6m-52.4,10h17.7m0,0h17.4m0,0h17.7m39.5,-.4v-9.6m17.4,9.6v-9.6m17.3,9.6v-9.6m17.3,9.6v-9.6m-52.3,10h17.7m0,0h17.3m0,0h17.7M826.8,296.1h17.7m-17.4,6.1v-5.7m17.4,-.4h17.3m0,0h17.7m-.4,6.1v-5.7M116.9,316h17.7m-17.3,6.1v-5.7m17.3,-.4H152m0,0h17.3m0,0H187m-.4,6.1v-5.7m-69.3,15.2v-9.5m17.3,9.5v-9.5m17.4,9.5v-9.5m17.3,9.5v-9.5m17.3,9.5v-9.5M116.9,332h17.7m0,0H152m0,0h17.3m0,0H187m74.8,-14.9h17.7m-17.3,6.1v-5.7m17.3,-.4h17.3m0,0h17.3m0,0h17.3m0,0h17.4m0,0h17.3m0,0h17.3m0,0h17.3m0,0h17.4m0,0h17.3m0,0h17.3m0,0H470m0,0h17.4m0,0h17.3m0,0H522m0,0h17.3m0,0h17.3m0,0H574m0,0h17.3m0,0h17.3m0,0h17.3m0,0h17.4m0,0h17.3m0,0h17.3m0,0h17.3m0,0h17.4m0,0h17.3m0,0h17.3m0,0h17.3m0,0h17.3m0,0h17.4m0,0h17.3m0,0h17.3m0,0h17.3m0,0h17.7m-.3,6.1v-5.7M262.2,332.8v-9.6m17.3,9.6v-9.6m17.3,9.6v-9.6m17.3,9.6v-9.6m17.3,9.6v-9.6m17.4,9.6v-9.6m17.3,9.6v-9.6m17.3,9.6v-9.6m17.3,9.6v-9.6m17.4,9.6v-9.6m17.3,9.6v-9.6m17.3,9.6v-9.6m17.3,9.6v-9.6m17.4,9.6v-9.6m17.3,9.6v-9.6m17.3,9.6v-9.6m17.3,9.6v-9.6m17.3,9.6v-9.6m17.4,9.6v-9.6m17.3,9.6v-9.6m17.3,9.6v-9.6m17.3,9.6v-9.6m17.4,9.6v-9.6m17.3,9.6v-9.6m17.3,9.6v-9.6m17.3,9.6v-9.6m17.4,9.6v-9.6m17.3,9.6v-9.6m17.3,9.6v-9.6m17.3,9.6v-9.6m17.3,9.6v-9.6m17.4,9.6v-9.6m17.3,9.6v-9.6m17.3,9.6v-9.6m17.3,9.6v-9.6m17.4,9.6v-9.6m-606.7,10h17.7m0,0h17.3m0,0h17.3m0,0h17.3m0,0h17.4m0,0h17.3m0,0h17.3m0,0h17.3m0,0h17.4m0,0h17.3m0,0h17.3m0,0H470m0,0h17.4m0,0h17.3m0,0H522m0,0h17.3m0,0h17.3m0,0H574m0,0h17.3m0,0h17.3m0,0h17.3m0,0h17.4m0,0h17.3m0,0h17.3m0,0h17.3m0,0h17.4m0,0h17.3m0,0h17.3m0,0h17.3m0,0h17.3m0,0h17.4m0,0h17.3m0,0h17.3m0,0h17.3m0,0h17.7M116.9,355.7h17.7m-17.3,6.1v-5.7m17.3,-.4H152m0,0h17.3m0,0h17.3m0,0h17.3m0,0h17.3m0,0h17.4m0,0h17.3m0,0h17.3m0,0h17.3m0,0h17.4m0,0h17.3m0,0h17.3m0,0h17.3m0,0h17.4m0,0h17.3m0,0h17.3m0,0h17.3m0,0h17.3m0,0h17.4m0,0h17.3m0,0h17.3m0,0h17.3m0,0h17.4m0,0h17.3m0,0h17.3m0,0H585m0,0h17.4m0,0h17.3m0,0H637m0,0h17.3m0,0h17.3m0,0h17.7m-.3,6.1v-5.7M117.3,371.4v-9.6m17.3,9.6v-9.6m17.4,9.6v-9.6m17.3,9.6v-9.6m17.3,9.6v-9.6m17.3,9.6v-9.6m17.3,9.6v-9.6m17.4,9.6v-9.6m17.3,9.6v-9.6m17.3,9.6v-9.6m17.3,9.6v-9.6m17.4,9.6v-9.6m17.3,9.6v-9.6m17.3,9.6v-9.6m17.3,9.6v-9.6m17.4,9.6v-9.6m17.3,9.6v-9.6m17.3,9.6v-9.6m17.3,9.6v-9.6m17.3,9.6v-9.6m17.4,9.6v-9.6m17.3,9.6v-9.6m17.3,9.6v-9.6m17.3,9.6v-9.6m17.4,9.6v-9.6m17.3,9.6v-9.6m17.3,9.6v-9.6m17.3,9.6v-9.6m17.4,9.6v-9.6m17.3,9.6v-9.6m17.3,9.6v-9.6m17.3,9.6v-9.6m17.3,9.6v-9.6m17.4,9.6v-9.6m-572.1,9.9h17.7m0,0H152m0,0h17.3m0,0h17.3m0,0h17.3m0,0h17.3m0,0h17.4m0,0h17.3m0,0h17.3m0,0h17.3m0,0h17.4m0,0h17.3m0,0h17.3m0,0h17.3m0,0h17.4m0,0h17.3m0,0h17.3m0,0h17.3m0,0h17.3m0,0h17.4m0,0h17.3m0,0h17.3m0,0h17.3m0,0h17.4m0,0h17.3m0,0h17.3m0,0H585m0,0h17.4m0,0h17.3m0,0H637m0,0h17.3m0,0h17.3m0,0h17.7m50.3,-16h17.7M740,361.8v-5.7m17.3,-.4h17.3m0,0h17.7m-.3,6.1v-5.7m-52,15.3v-9.6m17.3,9.6v-9.6m17.3,9.6v-9.6m17.4,9.6v-9.6m-52.4,9.9h17.7m0,0h17.3m0,0h17.7m36.5,-.3v-9.6m17.3,9.6v-9.6m17.3,9.6v-9.6m17.4,9.6v-9.6m-52.4,9.9h17.7m0,0h17.3m0,0h17.7m-52.7,-16h17.7m-17.3,6.1v-5.7m17.3,-.4h17.3m0,0h17.7m-.3,6.1v-5.7M116.9,375.6h17.7m-17.3,6V376m17.3,-.4H152m0,0h17.3m0,0H187m-.4,6V376m-69.3,15.2v-9.6m17.3,9.6v-9.6m17.4,9.6v-9.6m17.3,9.6v-9.6m17.3,9.6v-9.6m-69.7,10h17.7m0,0H152m0,0h17.3m0,0H187m68,-14.9h17.7m-17.3,6.1v-5.7m17.3,-.4h17.4m0,0h17.3m0,0h17.3m0,0H342m0,0h17.3m0,0h17.4m0,0H394m0,0h17.3m0,0h17.3m0,0H446m0,0h17.3m0,0h17.3m0,0h17.3m0,0h17.4m0,0h17.3m0,0h17.3m0,0h17.3m0,0h17.3m0,0h17.4m0,0h17.3m0,0h17.3m0,0h17.3m0,0h17.4m0,0h17.3m0,0h17.3m0,0h17.3m0,0h17.4m-.1,0h17.4m0,0h17.3m0,0h17.3m0,0h17.3m0,0h17.4m0,0h17.3m0,0h17.7m-.4,6.1v-5.7M255.4,392.4v-9.6m17.3,9.6v-9.6m17.4,9.6v-9.6m17.3,9.6v-9.6m17.3,9.6v-9.6m17.3,9.6v-9.6m17.3,9.6v-9.6m17.4,9.6v-9.6m17.3,9.6v-9.6m17.3,9.6v-9.6m17.3,9.6v-9.6m17.4,9.6v-9.6m17.3,9.6v-9.6m17.3,9.6v-9.6m17.3,9.6v-9.6m17.4,9.6v-9.6m17.3,9.6v-9.6m17.3,9.6v-9.6m17.3,9.6v-9.6m17.3,9.6v-9.6m17.4,9.6v-9.6m17.3,9.6v-9.6m17.3,9.6v-9.6m17.3,9.6v-9.6m17.4,9.6v-9.6m17.3,9.6v-9.6m17.3,9.6v-9.6m17.3,9.6v-9.6m17.3,9.6v-9.6m17.4,9.6v-9.6m17.3,9.6v-9.6m17.3,9.6v-9.6m17.3,9.6v-9.6m17.4,9.6v-9.6m17.3,9.6v-9.6m17.3,9.6v-9.6M255,392.8h17.7m0,0h17.4m0,0h17.3m0,0h17.3m0,0H342m0,0h17.3m0,0h17.4m0,0H394m0,0h17.3m0,0h17.3m0,0H446m0,0h17.3m0,0h17.3m0,0h17.3m0,0h17.4m0,0h17.3m0,0h17.3m0,0h17.3m0,0h17.3m0,0h17.4m0,0h17.3m0,0h17.3m0,0h17.3m0,0h17.4m0,0h17.3m0,0h17.3m0,0h17.3m0,0h17.4m-.1,0h17.4m0,0h17.3m0,0h17.3m0,0h17.3m0,0h17.4m0,0h17.3m0,0h17.7" class="g3_1"/>
<path d="M43.3,128.1H892.1M43.3,414.9H462.9" class="g4_1"/>
<path d="M43.7,445.7H55.9V433.5H43.7Zm0,0H55.9V433.5H43.7Zm73.3,0h12.3V433.5H117Zm0,0h12.3V433.5H117Zm82.5,0h12.3V433.5H199.5Zm0,0h12.3V433.5H199.5ZM43.7,465.6H55.9V453.4H43.7Zm0,0H55.9V453.4H43.7Zm73.3,0h12.3V453.4H117Zm0,0h12.3V453.4H117Zm82.5,0h12.3V453.4H199.5Zm0,0h12.3V453.4H199.5ZM174,485.5h12.2V473.2H174Zm0,0h12.2V473.2H174Zm51.2,0h12.3V473.2H225.2Zm0,0h12.3V473.2H225.2Zm78.9,0h12.2V473.2H304.1Zm0,0h12.2V473.2H304.1ZM153.2,498.6v8.7m-34.7,1.1H430.9V492.6H118.5Zm34.7,-9.8v8.7m-17.3,-8.7v8.7m34.6,-8.7v8.7m17.4,-8.7v8.7m17.3,-8.7v8.7m17.3,-8.7v8.7m17.3,-8.7v8.7m17.4,-8.7v8.7m17.3,-8.7v8.7m17.3,-8.7v8.7m17.3,-8.7v8.7m17.4,-8.7v8.7m17.3,-8.7v8.7m17.3,-8.7v8.7M135.9,498.6v8.7m34.6,-8.7v8.7m17.4,-8.7v8.7m17.3,-8.7v8.7m17.3,-8.7v8.7m17.3,-8.7v8.7m17.4,-8.7v8.7m17.3,-8.7v8.7m17.3,-8.7v8.7m17.3,-8.7v8.7m17.4,-8.7v8.7m17.3,-8.7v8.7m17.3,-8.7v8.7m17.3,-8.7v8.7m17.3,-8.7v8.7m17.4,-8.7v8.7" class="g2_1"/>
<path d="M153.6,493H119v14.9h34.6" class="g5_1"/>
<path d="M78.4,541.4V550m-34.7,1.2H217.4V535.4H43.7Zm34.7,-9.8V550M61,541.4V550m34.7,-8.6V550M113,541.4V550m17.3,-8.6V550m17.4,-8.6V550M165,541.4V550m17.3,-8.6V550m17.3,-8.6V550M61,541.4V550m34.7,-8.6V550M113,541.4V550m17.3,-8.6V550m17.4,-8.6V550M165,541.4V550m17.3,-8.6V550m17.3,-8.6V550m149.2,-8.6V550m-34.7,1.2H435V535.4H314.1Zm34.7,-9.8V550m-17.3,-8.6V550m34.6,-8.6V550m17.3,-8.6V550m17.4,-8.6V550m17.3,-8.6V550m-86.6,-8.6V550m34.6,-8.6V550m17.3,-8.6V550m17.4,-8.6V550m17.3,-8.6V550" class="g2_1"/>
<path d="M446.5,535.1h18.1m-17.7,6.1v-5.7m17.3,5.7v-5.7m-17.3,15.3v-9.6m17.3,9.6v-9.6m-17.7,10h18.1" class="g3_1"/>
<path d="M78.4,562.8v8.6m-34.7,1.1H217.4V556.7H43.7Zm34.7,-9.7v8.6M61,562.8v8.6m34.7,-8.6v8.6M113,562.8v8.6m17.3,-8.6v8.6m17.4,-8.6v8.6M165,562.8v8.6m17.3,-8.6v8.6m17.3,-8.6v8.6M61,562.8v8.6m34.7,-8.6v8.6M113,562.8v8.6m17.3,-8.6v8.6m17.4,-8.6v8.6M165,562.8v8.6m17.3,-8.6v8.6m17.3,-8.6v8.6m149.2,-8.6v8.6m-34.7,1.1H435V556.7H314.1Zm34.7,-9.7v8.6m-17.3,-8.6v8.6m34.6,-8.6v8.6m17.3,-8.6v8.6m17.4,-8.6v8.6m17.3,-8.6v8.6m-86.6,-8.6v8.6m34.6,-8.6v8.6m17.3,-8.6v8.6m17.4,-8.6v8.6m17.3,-8.6v8.6" class="g2_1"/>
<path d="M446.5,556.5h18.1m-17.7,6.1v-5.7m17.3,5.7v-5.7m-17.3,15.3v-9.6m17.3,9.6v-9.6m-17.7,9.9h18.1" class="g3_1"/>
<path d="M78.4,584.6v8.6m-34.7,1.2H217.4V578.6H43.7Zm34.7,-9.8v8.6M61,584.6v8.6m34.7,-8.6v8.6M113,584.6v8.6m17.3,-8.6v8.6m17.4,-8.6v8.6M165,584.6v8.6m17.3,-8.6v8.6m17.3,-8.6v8.6M61,584.6v8.6m34.7,-8.6v8.6M113,584.6v8.6m17.3,-8.6v8.6m17.4,-8.6v8.6M165,584.6v8.6m17.3,-8.6v8.6m17.3,-8.6v8.6m149.2,-9v8.6m-34.7,1.1H435V578.1H314.1Zm34.7,-9.7v8.6m-17.3,-8.6v8.6m34.6,-8.6v8.6m17.3,-8.6v8.6m17.4,-8.6v8.6m17.3,-8.6v8.6m-86.6,-8.6v8.6m34.6,-8.6v8.6m17.3,-8.6v8.6m17.4,-8.6v8.6m17.3,-8.6v8.6" class="g2_1"/>
<path d="M446.5,577.9h18.1M446.9,584v-5.7m17.3,5.7v-5.7m-17.3,15.3V584m17.3,9.6V584m-17.7,9.9h18.1" class="g3_1"/>
<path d="M78.4,605.5v8.7m-34.7,1.1H217.4V599.5H43.7Zm34.7,-9.8v8.7M61,605.5v8.7m34.7,-8.7v8.7M113,605.5v8.7m17.3,-8.7v8.7m17.4,-8.7v8.7M165,605.5v8.7m17.3,-8.7v8.7m17.3,-8.7v8.7M61,605.5v8.7m34.7,-8.7v8.7M113,605.5v8.7m17.3,-8.7v8.7m17.4,-8.7v8.7M165,605.5v8.7m17.3,-8.7v8.7m17.3,-8.7v8.7m149.2,-8.7v8.7m-34.7,1.1H435V599.5H314.1Zm34.7,-9.8v8.7m-17.3,-8.7v8.7m34.6,-8.7v8.7m17.3,-8.7v8.7m17.4,-8.7v8.7m17.3,-8.7v8.7m-86.6,-8.7v8.7m34.6,-8.7v8.7m17.3,-8.7v8.7m17.4,-8.7v8.7m17.3,-8.7v8.7" class="g2_1"/>
<path d="M446.5,599.3h18.1m-17.7,6.1v-5.7m17.3,5.7v-5.7m-17.3,15.2v-9.5m17.3,9.5v-9.5m-17.7,9.9h18.1" class="g3_1"/>
<path d="M348.8,625.4v8.7m-34.7,1.1H417.7V619.4H314.1Zm34.7,-9.8v8.7m-17.3,-8.7v8.7m34.6,-8.7v8.7m17.3,-8.7v8.7m17.4,-8.7v8.7m-69.3,-8.7v8.7m34.6,-8.7v8.7m17.3,-8.7v8.7m17.4,-8.7v8.7M216.3,653.5h12.3V641.3H216.3Zm0,0h12.3V641.3H216.3Zm52,0h12.2V641.3H268.3Zm0,0h12.2V641.3H268.3Zm-52,19.9h12.3V661.2H216.3Zm0,0h12.3V661.2H216.3Zm52,0h12.2V661.2H268.3Zm0,0h12.2V661.2H268.3Z" class="g2_1"/>
<path d="M167.1,678.7h17.7m-17.4,6.1v-5.7m17.4,-.4h17.3m0,0h17.3m0,0h17.3m0,0h17.4m0,0h17.3m0,0h17.3m0,0H306m0,0h17.3m0,0h17.4m0,0H358m0,0h17.3m0,0h17.3m0,0H410m0,0h17.3m0,0H445m-.4,6.1v-5.7M167.4,694.4v-9.6m17.4,9.6v-9.6m17.3,9.6v-9.6m17.3,9.6v-9.6m17.3,9.6v-9.6m17.4,9.6v-9.6m17.3,9.6v-9.6m17.3,9.6v-9.6m17.3,9.6v-9.6m17.3,9.6v-9.6m17.4,9.6v-9.6m17.3,9.6v-9.6m17.3,9.6v-9.6m17.3,9.6v-9.6m17.4,9.6v-9.6m17.3,9.6v-9.6m17.3,9.6v-9.6m-277.5,10h17.7m0,0h17.3m0,0h17.3m0,0h17.3m0,0h17.4m0,0h17.3m0,0h17.3m0,0H306m0,0h17.3m0,0h17.4m0,0H358m0,0h17.3m0,0h17.3m0,0H410m0,0h17.3m0,0H445M291.4,714.2v-9.5m17.3,9.5v-9.5m17.3,9.5v-9.5m-35,9.9h17.7m0,0h17.7M291,698.6h17.7m-17.3,6.1V699m17.3,-.4h17.7m-.4,6.1V699m7.2,-.4h17.7m-17.3,6.1V699m17.3,-.4h17.7m-.4,6.1V699m-34.6,15.2v-9.5m17.3,9.5v-9.5m17.3,9.5v-9.5m-35,9.9h17.7m0,0h17.7m6.8,-16h17.7m-17.3,6.1V699m17.3,-.4h17.3m0,0h17.4m0,0h17.7m-.4,6.1V699m-69.3,15.2v-9.5m17.3,9.5v-9.5m17.3,9.5v-9.5m17.4,9.5v-9.5m17.3,9.5v-9.5m-69.7,9.9h17.7m0,0h17.3m0,0h17.4m0,0h17.7" class="g3_1"/>
<path d="M43.3,825.7H892.1" class="g4_1"/>
<path d="M260.6,855h12.3V842.8H260.6Zm0,0h12.3V842.8H260.6Zm97.8,0h12.2V842.8H358.4Zm0,0h12.2V842.8H358.4Zm-97.8,15.3h12.3V858.1H260.6Zm0,0h12.3V858.1H260.6Zm97.8,0h12.2V858.1H358.4Zm0,0h12.2V858.1H358.4Zm113.1,0h12.2V858.1H471.5Zm0,0h12.2V858.1H471.5ZM260.6,885.6h12.3V873.4H260.6Zm0,0h12.3V873.4H260.6Zm125.1,0h12.2V873.4H385.7Zm0,0h12.2V873.4H385.7Zm196.5,0h12.2V873.4H582.2Zm0,0h12.2V873.4H582.2Z" class="g2_1"/>
<path d="M43.3,907.6H458.5" class="g4_1"/>
<path d="M197.6,937.7h17.7m-17.3,6v-5.6m17.3,-.4h17.3m0,0H250m0,0h17.3m0,0h17.3m0,0h17.3m0,0h17.4m0,0h17.3m0,0h17.3m0,0h17.3m0,0h17.3m0,0h17.4m0,0h17.3m0,0h17.3m0,0h17.7m-.4,6v-5.6M198,953.3v-9.6m17.3,9.6v-9.6m17.3,9.6v-9.6m17.4,9.6v-9.6m17.3,9.6v-9.6m17.3,9.6v-9.6m17.3,9.6v-9.6m17.4,9.6v-9.6m17.3,9.6v-9.6m17.3,9.6v-9.6m17.3,9.6v-9.6m17.3,9.6v-9.6m17.4,9.6v-9.6m17.3,9.6v-9.6m17.3,9.6v-9.6m17.3,9.6v-9.6m-260.2,10h17.7m0,0h17.3m0,0H250m0,0h17.3m0,0h17.3m0,0h17.3m0,0h17.4m0,0h17.3m0,0h17.3m0,0h17.3m0,0h17.3m0,0h17.4m0,0h17.3m0,0h17.3m0,0h17.7M92.2,982h17.7m-17.3,6v-5.6m17.3,-.4h17.3m0,0h17.3m0,0h17.8m-.4,6v-5.6M92.6,997.6V988m17.3,9.6V988m17.3,9.6V988m17.3,9.6V988m17.4,9.6V988M92.2,998h17.7m0,0h17.3m0,0h17.3m0,0h17.8m3.5,-16h17.7m-17.3,6v-5.6m17.3,-.4h17.3m0,0h17.4m0,0h17.7m-.4,6v-5.6m-69.3,15.2V988m17.3,9.6V988m17.3,9.6V988m17.4,9.6V988m17.3,9.6V988m-69.7,10h17.7m0,0h17.3m0,0h17.4m0,0h17.7m3.5,-16h17.7m-17.3,6v-5.6m17.3,-.4h17.4m0,0h17.3m0,0h17.7m-.4,6v-5.6m-69.3,15.2V988m17.3,9.6V988m17.4,9.6V988m17.3,9.6V988m17.3,9.6V988m-69.7,10h17.7m0,0h17.4m0,0h17.3m0,0h17.7M313,982h17.8m-17.4,6v-5.6m17.3,-.4h17.4m0,0h17.3m0,0h17.7m-.4,6v-5.6m-69.3,15.2V988m17.3,9.6V988m17.4,9.6V988m17.3,9.6V988m17.3,9.6V988M313,998h17.8m-.1,0h17.4m0,0h17.3m0,0h17.7m-290.9,3.8h17.7m-17.3,6.1v-5.7m17.3,-.4h17.3m0,0h17.3m0,0h17.4m0,0h17.3m0,0h17.3m0,0h17.3m0,0h17.7m-.3,6.1v-5.7M92.6,1017.5v-9.6m17.3,9.6v-9.6m17.3,9.6v-9.6m17.3,9.6v-9.6m17.4,9.6v-9.6m17.3,9.6v-9.6m17.3,9.6v-9.6m17.3,9.6v-9.6m17.4,9.6v-9.6m-139,10h17.7m0,0h17.3m0,0h17.3m0,0h17.4m0,0h17.3m0,0h17.3m0,0h17.3m0,0h17.7m-139.3,3.8h17.7m-17.3,6.1v-5.7m17.3,-.4h17.7m-.4,6.1v-5.7m-34.6,15.2v-9.5m17.3,9.5v-9.5m17.3,9.5v-9.5m-35,9.9h17.7m0,0h17.7m5.3,-16h17.7m-17.3,6.1v-5.7m17.3,-.4h17.7m-.4,6.1v-5.7m-34.6,15.2v-9.5m17.3,9.5v-9.5m17.3,9.5v-9.5m-35,9.9h17.7m0,0h17.7m5.3,-16h17.7m-17.3,6.1v-5.7m17.3,-.4h17.3m0,0h17.3m0,0h17.7m-.3,6.1v-5.7M174,1037.3v-9.5m17.3,9.5v-9.5m17.3,9.5v-9.5m17.3,9.5v-9.5m17.4,9.5v-9.5m-69.7,9.9h17.7m0,0h17.3m0,0h17.3m0,0h17.7m-151,19.5v-9.6m17.3,9.6v-9.6m17.3,9.6v-9.6m17.3,9.6v-9.6m17.4,9.6v-9.6m17.3,9.6v-9.6m17.3,9.6v-9.6m17.3,9.6v-9.6m17.4,9.6v-9.6m17.3,9.6v-9.6m17.3,9.6v-9.6m17.3,9.6v-9.6m17.4,9.6v-9.6m17.3,9.6v-9.6m-225.6,10h17.7m0,0h17.3m0,0h17.3m0,0h17.4m0,0h17.3m0,0h17.3m0,0h17.3m0,0h17.4m0,0h17.3m0,0h17.3m0,0h17.3m0,0h17.4m0,0h17.7m-226,-16h17.7m-17.3,6v-5.7m17.3,-.3h17.3m0,0h17.3m0,0h17.4m0,0h17.3m0,0h17.3m0,0h17.3m0,0h17.4m0,0h17.3m0,0h17.3m0,0h17.3m0,0h17.4m0,0h17.7m-.4,6v-5.7" class="g3_1"/>
<path d="M476.9,907.6H892.1" class="g4_1"/>
<path d="M510.5,937.7h17.7m-17.3,6v-5.6m17.3,-.4h17.3m0,0h17.3m0,0h17.4m0,0h17.3m0,0h17.3m0,0h17.3m0,0h17.4m0,0h17.3m0,0h17.3m0,0h17.3m0,0h17.4m0,0h17.3m0,0h17.3m0,0h17.3m0,0H788m0,0h17.4m0,0h17.3m0,0H840m0,0h17.3m0,0h17.4m0,0h17.7m-.4,6v-5.6M510.9,953.3v-9.6m17.3,9.6v-9.6m17.3,9.6v-9.6m17.3,9.6v-9.6m17.4,9.6v-9.6m17.3,9.6v-9.6m17.3,9.6v-9.6m17.3,9.6v-9.6m17.4,9.6v-9.6m17.3,9.6v-9.6m17.3,9.6v-9.6m17.3,9.6v-9.6m17.4,9.6v-9.6m17.3,9.6v-9.6m17.3,9.6v-9.6m17.3,9.6v-9.6m17.3,9.6v-9.6m17.4,9.6v-9.6m17.3,9.6v-9.6m17.3,9.6v-9.6m17.3,9.6v-9.6m17.4,9.6v-9.6m17.3,9.6v-9.6m-381.5,10h17.7m0,0h17.3m0,0h17.3m0,0h17.4m0,0h17.3m0,0h17.3m0,0h17.3m0,0h17.4m0,0h17.3m0,0h17.3m0,0h17.3m0,0h17.4m0,0h17.3m0,0h17.3m0,0h17.3m0,0H788m0,0h17.4m0,0h17.3m0,0H840m0,0h17.3m0,0h17.4m0,0h17.7m-381.9,3.8h17.7m-17.3,6.1v-5.7m17.3,-.4h17.3m0,0h17.3m0,0h17.4m0,0h17.3m0,0h17.3m0,0h17.3m0,0h17.4m0,0h17.3m0,0h17.3m0,0h17.3m0,0h17.7m-.3,6.1v-5.7M510.9,973.2v-9.6m17.3,9.6v-9.6m17.3,9.6v-9.6m17.3,9.6v-9.6m17.4,9.6v-9.6m17.3,9.6v-9.6m17.3,9.6v-9.6m17.3,9.6v-9.6m17.4,9.6v-9.6m17.3,9.6v-9.6m17.3,9.6v-9.6m17.3,9.6v-9.6m17.4,9.6v-9.6m-208.3,10h17.7m0,0h17.3m0,0h17.3m0,0h17.4m0,0h17.3m0,0h17.3m0,0h17.3m0,0h17.4m0,0h17.3m0,0h17.3m0,0h17.3m0,0h17.7m44.7,-.4v-9.6m-17.7,-6.1h17.7m-17.3,6.1v-5.7m17.3,-.4h17.7m-.4,6.1v-5.7m-34.6,15.3v-9.6m34.6,9.6v-9.6m-35,10h17.7m0,0h17.7m20.3,-.4v-9.6m-17.7,-6.1h17.7m-17.3,6.1v-5.7m17.3,-.4h17.7m-.4,6.1v-5.7m-34.6,15.3v-9.6m34.6,9.6v-9.6m-35,10h17.7m0,0h17.7m2.6,-16.1h17.7m-17.3,6.1v-5.7m17.3,-.4h17.3m0,0h17.3m0,0h17.7m-.4,6.1v-5.7m-69.2,15.3v-9.6m17.3,9.6v-9.6m17.3,9.6v-9.6m17.3,9.6v-9.6m17.3,9.6v-9.6m-69.6,10h17.7m0,0h17.3m0,0h17.3m0,0h17.7" class="g3_1"/>
<path d="M321.8,1129.1H458v-60.7H321.8Zm155.3,0H671.2v-60.7H477.1Zm220.5,0H891.7v-60.7H697.6Z" class="g6_1"/>
<path d="M476.5,414.9H892.1" class="g4_1"/>
<path d="M476.9,445.7h12.2V433.5H476.9Zm0,0h12.2V433.5H476.9Zm103.9,0H593V433.5H580.8Zm0,0H593V433.5H580.8ZM476.9,465.6h12.2V453.4H476.9Zm0,0h12.2V453.4H476.9Zm73.3,0h12.2V453.4H550.2Zm0,0h12.2V453.4H550.2Zm82.5,0h12.2V453.4H632.7Zm0,0h12.2V453.4H632.7Zm-59.4,13.1v8.7m-34.7,1.1H850.9V472.7H538.6Zm34.7,-9.8v8.7m-17.4,-8.7v8.7m34.7,-8.7v8.7m17.3,-8.7v8.7m17.3,-8.7v8.7m17.4,-8.7v8.7m17.3,-8.7v8.7m17.3,-8.7v8.7m17.3,-8.7v8.7m17.3,-8.7v8.7m17.4,-8.7v8.7m17.3,-8.7v8.7m17.3,-8.7v8.7m17.3,-8.7v8.7M555.9,478.7v8.7m34.7,-8.7v8.7m17.3,-8.7v8.7m17.3,-8.7v8.7m17.4,-8.7v8.7m17.3,-8.7v8.7m17.3,-8.7v8.7m17.3,-8.7v8.7m17.3,-8.7v8.7m17.4,-8.7v8.7m17.3,-8.7v8.7m17.3,-8.7v8.7m17.3,-8.7v8.7m17.4,-8.7v8.7m17.3,-8.7v8.7m17.3,-8.7v8.7" class="g2_1"/>
<path d="M573.6,473.1H539v15h34.6" class="g5_1"/>
<path d="M661.3,500.1v8.7m-34.7,1.1H800.3V494.1H626.6Zm34.7,-9.8v8.7M644,500.1v8.7m34.6,-8.7v8.7m17.3,-8.7v8.7m17.3,-8.7v8.7m17.4,-8.7v8.7m17.3,-8.7v8.7m17.3,-8.7v8.7m17.3,-8.7v8.7M644,500.1v8.7m34.6,-8.7v8.7m17.3,-8.7v8.7m17.3,-8.7v8.7m17.4,-8.7v8.7m17.3,-8.7v8.7m17.3,-8.7v8.7m17.3,-8.7v8.7M661.3,521.5v8.7m-34.7,1.1H747.5V515.5H626.6Zm34.7,-9.8v8.7M644,521.5v8.7m34.6,-8.7v8.7m17.3,-8.7v8.7m17.3,-8.7v8.7m17.4,-8.7v8.7M644,521.5v8.7m34.6,-8.7v8.7m17.3,-8.7v8.7m17.3,-8.7v8.7m17.4,-8.7v8.7" class="g2_1"/>
<path d="M759.2,515.3h18m-17.7,6v-5.6m17.4,5.6v-5.6m-17.4,15.2v-9.6m17.4,9.6v-9.6m-17.7,10h18" class="g3_1"/>
<path d="M782,541.4V550m-34.7,1.2H850.8V535.4H747.3ZM782,541.4V550m-17.4,-8.6V550m34.7,-8.6V550m17.3,-8.6V550m17.3,-8.6V550m-69.3,-8.6V550m34.7,-8.6V550m17.3,-8.6V550m17.3,-8.6V550m-189,19.5h12.3V557.3H644.9Zm0,0h12.3V557.3H644.9Zm52,0h12.2V557.3H696.9Zm0,0h12.2V557.3H696.9Zm-52,19.9h12.3V577.1H644.9Zm0,0h12.3V577.1H644.9Zm52,0h12.2V577.1H696.9Zm0,0h12.2V577.1H696.9Z" class="g2_1"/>
<path d="M592.6,594.7h17.7M593,600.8v-5.7m17.3,-.4h17.3m0,0H645m0,0h17.3m0,0h17.3m0,0h17.3m0,0h17.3m0,0h17.4m0,0h17.3m0,0h17.3m0,0h17.3m0,0h17.4m0,0h17.3m0,0h17.3m0,0h17.3m0,0h17.7m-.3,6.1v-5.7M593,610.4v-9.6m17.3,9.6v-9.6m17.3,9.6v-9.6m17.4,9.6v-9.6m17.3,9.6v-9.6m17.3,9.6v-9.6m17.3,9.6v-9.6m17.3,9.6v-9.6m17.4,9.6v-9.6m17.3,9.6v-9.6m17.3,9.6v-9.6m17.3,9.6v-9.6m17.4,9.6v-9.6m17.3,9.6v-9.6m17.3,9.6v-9.6m17.3,9.6v-9.6m17.4,9.6v-9.6m-277.6,9.9h17.7m0,0h17.3m0,0H645m0,0h17.3m0,0h17.3m0,0h17.3m0,0h17.3m0,0h17.4m0,0h17.3m0,0h17.3m0,0h17.3m0,0h17.4m0,0h17.3m0,0h17.3m0,0h17.3m0,0h17.7M716.7,630.2v-9.6m17.4,9.6v-9.6m17.3,9.6v-9.6m-35,10h17.7m0,0h17.7m-35.4,-16h17.7m-17.4,6V615m17.4,-.4h17.7m-.4,6V615m7.1,-.4h17.7m-17.3,6V615m17.3,-.4h17.7m-.4,6V615m-34.6,15.2v-9.6m17.3,9.6v-9.6m17.3,9.6v-9.6m-35,10h17.7m0,0h17.7m6.8,-16h17.7m-17.3,6V615m17.3,-.4h17.3m0,0H853m0,0h17.7m-.4,6V615m-69.2,15.2v-9.6m17.3,9.6v-9.6m17.3,9.6v-9.6m17.3,9.6v-9.6m17.3,9.6v-9.6m-69.6,10h17.7m0,0h17.3m0,0H853m0,0h17.7" class="g3_1"/>
<path d="M477.1,674.6H869.9V638.5H477.1Z" class="g6_1"/>
<path d="M127.7,1235.7v-9.6m17.3,9.6v-9.6m17.4,9.6v-9.6m17.3,9.6v-9.6m17.3,9.6v-9.6m17.3,9.6v-9.6m17.4,9.6v-9.6m17.3,9.6v-9.6m17.3,9.6v-9.6m17.3,9.6v-9.6m17.3,9.6v-9.6m17.4,9.6v-9.6m-191,10H145m0,0h17.4m0,0h17.3m0,0H197m0,0h17.3m0,0h17.4m0,0H249m0,0h17.3m0,0h17.3m0,0h17.3m0,0h17.8m-191.4,-16H145m-17.3,6v-5.6m17.3,-.4h17.4m0,0h17.3m0,0H197m0,0h17.3m0,0h17.4m0,0H249m0,0h17.3m0,0h17.3m0,0h17.3m0,0h17.8m-.4,6v-5.6m-155.8,19.4h17.7m-17.3,6.1v-5.7m17.3,-.4h17.3m0,0h17.3m0,0h17.3m0,0h17.4m0,0h17.3m0,0h17.3m0,0h17.3m0,0h17.7m-.3,6.1v-5.7m-155.9,15.3V1246m17.3,9.6V1246m17.3,9.6V1246m17.3,9.6V1246m17.3,9.6V1246m17.4,9.6V1246m17.3,9.6V1246m17.3,9.6V1246m17.3,9.6V1246m17.4,9.6V1246m-156.3,10h17.7m0,0h17.3m0,0h17.3m0,0h17.3m0,0h17.4m0,0h17.3m0,0h17.3m0,0h17.3m0,0h17.7" class="g3_1"/>
<path d="M328,1255.8H891.6v-36.1H328Z" class="g6_1"/>
<path d="M259,1208.9H892.3" class="g7_1"/>
<path d="M476.3,1058H892.1v-36.8H476.3V1058Z" class="g0_1"/>
<path d="M43.3,72.1h563" class="g8_1"/>
<path d="M362.7,739.3h12.2V727.1H362.7Zm0,0h12.2V727.1H362.7Zm34,0h12.2V727.1H396.7Zm0,0h12.2V727.1H396.7ZM172.3,756.1h12.2V743.9H172.3Zm0,0h12.2V743.9H172.3Zm36.3,0h12.2V743.9H208.6Zm0,0h12.2V743.9H208.6Zm84.1,0h12.2V743.9H292.7Zm0,0h12.2V743.9H292.7Zm36.3,0h12.2V743.9H329Zm0,0h12.2V743.9H329Zm188.4,0h12.2V743.9H517.4Zm0,0h12.2V743.9H517.4Zm38.6,0h12.2V743.9H556Zm0,0h12.2V743.9H556Zm250.2,0h12.3V743.9H806.2Zm0,0h12.3V743.9H806.2Zm36.3,0h12.3V743.9H842.5Zm0,0h12.3V743.9H842.5ZM137.3,772.9h12.2V760.7H137.3Zm0,0h12.2V760.7H137.3Zm36.3,0h12.2V760.7H173.6Zm0,0h12.2V760.7H173.6Zm227.6,0h12.3V760.7H401.2Zm0,0h12.3V760.7H401.2Zm38.6,0H452V760.7H439.8Zm0,0H452V760.7H439.8Zm182,0H634V760.7H621.8Zm0,0H634V760.7H621.8Zm36.3,0h12.2V760.7H658.1Zm0,0h12.2V760.7H658.1Zm156.8,16.8h12.2V777.5H814.9Zm0,0h12.2V777.5H814.9Zm36.6,0h12.2V777.5H851.5Zm0,0h12.2V777.5H851.5ZM322.9,804.5h12.3V792.3H322.9Zm0,0h12.3V792.3H322.9Zm38.6,0h12.2V792.3H361.5Zm0,0h12.2V792.3H361.5Z" class="g2_1"/>
<path d="M617.8,1101.3c-.8,.5,-1.6,1.1,-2.5,1.6c-.4,.3,-1,.5,-1.4,.4c-2.7,-.8,-5.3,-1.8,-8,-2.4c-2.6,-.6,-5.3,-.8,-8.1,-1.2c.1,-2.3,.3,-4.6,.4,-6.9c0,-5.8,.4,-11.7,-1.4,-17.4c-.5,-1.4,-1.3,-2.7,-2,-4c-1.1,-1.9,-3.3,-1.7,-4.8,-.9c-1.2,.6,-2.4,1.5,-3.3,2.5c-4.9,4.9,-8,10.9,-10.3,17.4c-2.2,5.9,-2.8,12,-2.7,18.2c0,3.5,.4,7,2,10.2c1,1.7,2.2,3.5,3.7,4.8c2.3,2,5.1,1.4,7.8,.3c2,-.9,4,-2,6.3,-3.1c-.4,1.7,-.7,3.1,-1,4.7c-.6,-.7,-.9,-1.1,-1.3,-1.5c0,.1,-.1,.1,-.2,.2c.5,1.2,1,2.5,1.4,3.8c.2,0,.4,0,.6,0c.1,-.5,.3,-1,.4,-1.6c.4,-1.9,.7,-3.8,1.1,-5.7c.2,-.6,.6,-1.2,1.1,-1.6c1.6,-1.2,3.3,-2.3,4.8,-3.6c2.8,-2.4,5.5,-5,8.4,-7.2c2.4,-1.8,5,-3.2,7.5,-4.8c.7,-.5,1.3,-1.2,1.9,-1.8c.1,-.1,.1,-.4,0,-.5c0,0,-.3,0,-.4,.1m-29.6,21.1c-1.7,.5,-3.4,1.2,-5.2,1.4c-2.5,.3,-4.1,-1.3,-5.3,-3.3c-4.1,-6.9,-3.9,-14.4,-2.5,-21.9c.7,-3.9,1.7,-7.8,3.3,-11.3c2.2,-5.2,5.1,-10.1,9.2,-14c.6,-.6,1.2,-1,1.9,-1.4c2.3,-1.5,4.2,-1.2,5.2,1.4c1,2.9,2,6,2.1,9c.3,5.4,-.1,10.8,-.2,16.2c0,1.2,-.5,1.5,-1.6,1.5c-1.7,-.1,-3.3,0,-5,0c-2.2,.1,-4.4,.1,-6.7,.4c-3.3,.3,-3.9,1.7,-2.2,4.6c1.9,3.1,3.7,6.3,5.4,9.5c1,1.7,1.8,3.5,2.6,5.3c.5,1.2,.6,2.2,-1,2.6m6,-6.4c-.1,2.5,-1.2,4.1,-3.7,5.1c-.2,-.5,-.5,-1.1,-.8,-1.7c-2.7,-5.3,-5.3,-10.5,-8,-15.8c-.5,-1.1,-.4,-1.9,.9,-2c1.4,-.2,2.8,-.3,4.2,-.3c3.1,0,6.2,0,9.6,0c-.3,2.7,-.6,5.4,-1,8c-.3,2.2,-1,4.4,-1.2,6.7m.8,2.5c.9,-6.1,1.7,-11.6,2.6,-17.2c5.5,-.4,10.7,.7,15.7,2.3c-6,4.9,-12,9.8,-18.3,14.9Z" class="g0_1"/>
<path d="M633.4,1092.9c-3,.1,-5.9,.3,-8.8,.4c-.1,0,-.9,0,-1.1,-.3c-.1,-.3,.3,-.5,.5,-.5h9.4c0,0,.1,0,.2,.2c0,.2,-.2,.2,-.2,.2Z" class="g0_1"/>
<g clip-path="url(#c0_1)">
<path d="M-22.1,0H-45M927.3,0h22.9M-22.1,1286.2H-45m972.3,0h22.9M-12.9,-9.1V-32m0,1327.4v22.9M918.1,-9.1V-32m0,1327.4v22.9" class="g9_1"/>
<path d="M-22.1,0H-45M927.3,0h22.9M-22.1,1286.2H-45m972.3,0h22.9M-12.9,-9.1V-32m0,1327.4v22.9M918.1,-9.1V-32m0,1327.4v22.9" class="ga_1"/>
</g>
<path d="M121.3,506.3h12.1V495.4H121.3v10.9Z" class="g1_1"/>
<path d="M137.7,506.3h12.1V495.4H137.7v10.9Z" class="g1_1"/>
<path d="M541.3,486.3h12.2V475.5H541.3v10.8Z" class="g1_1"/>
<path d="M557.8,486.3h12.1V475.5H557.8v10.8Z" class="g1_1"/>
</svg>